<?xml version="1.0" encoding="UTF-8"?><svg id="Layer_1" xmlns="http://www.w3.org/2000/svg" viewBox="0 0 545.84 175.25"><defs><style>.cls-1{fill:#fff;}</style></defs><polygon class="cls-1" points="5.07 164.95 2.36 164.95 2.36 163.13 9.82 163.13 9.82 164.95 7.13 164.95 7.13 173.27 5.07 173.27 5.07 164.95"/><polygon class="cls-1" points="19.01 163.13 19.01 173.28 16.95 173.28 16.95 169.07 13.17 169.07 13.17 173.28 11.11 173.28 11.11 163.13 13.17 163.13 13.17 167.28 16.95 167.28 16.95 163.13 19.01 163.13"/><polygon class="cls-1" points="23.27 164.92 23.27 167.29 26.88 167.29 26.88 169.05 23.27 169.05 23.27 171.48 27.78 171.48 27.78 173.27 21.22 173.27 21.22 163.13 27.78 163.13 27.78 164.92 23.27 164.92"/><path class="cls-1" d="M32.87,173.09l-.54-.1.21-1.6c1.33.18,2.35.27,3.06.27,1.05,0,1.58-.44,1.58-1.32,0-.36-.14-.62-.42-.79-.28-.17-.75-.35-1.4-.54-.79-.22-1.4-.46-1.86-.73-.45-.27-.78-.59-.98-.95-.2-.37-.31-.83-.31-1.38,0-.99.3-1.74.91-2.25.6-.51,1.46-.76,2.55-.76.42,0,.87.03,1.33.09.46.06,1.13.16,2.01.32l-.16,1.62c-1.36-.16-2.35-.24-2.97-.24-1.08,0-1.63.36-1.63,1.07,0,.25.09.45.27.61.18.16.4.29.67.4.27.1.72.25,1.36.45.69.22,1.22.45,1.6.69.38.24.65.53.82.89.17.35.25.81.25,1.37,0,1.04-.31,1.84-.95,2.4-.63.56-1.48.83-2.56.83-.78,0-1.72-.12-2.85-.36"/><path class="cls-1" d="M45.92,171.44h-3.55l-.4,1.83h-2.06l2.28-10.15h3.91l2.28,10.15h-2.06l-.41-1.83ZM44.5,164.83h-.72l-1.03,4.82h2.77l-1.03-4.82Z"/><path class="cls-1" d="M50.53,172.57c-.64-.59-.95-1.5-.95-2.73v-6.71h2.06v6.76c0,1.19.6,1.78,1.8,1.78s1.81-.59,1.81-1.78v-6.76h2.06v6.71c0,1.23-.32,2.15-.95,2.73-.63.59-1.61.88-2.91.88s-2.27-.29-2.91-.88"/><path class="cls-1" d="M65.5,163.61c.61.32,1.05.83,1.29,1.53.25.69.37,1.66.37,2.9s-.12,2.3-.36,3.04c-.24.75-.67,1.3-1.29,1.66-.62.36-1.51.53-2.66.53h-3.41v-10.14h3.41c1.16,0,2.04.16,2.66.48M64.28,171.09c.31-.26.52-.63.61-1.11.1-.48.14-1.17.14-2.07,0-.79-.05-1.39-.15-1.8-.1-.41-.3-.71-.61-.9s-.79-.29-1.43-.29h-1.35v6.57h1.35c.65,0,1.13-.13,1.44-.39"/><rect class="cls-1" x="68.94" y="163.13" width="2.06" height="10.15"/><polygon class="cls-1" points="87.08 163.13 87.08 173.28 85.02 173.28 85.02 165.42 84.8 165.42 82.82 172.82 80.76 172.82 78.77 165.42 78.55 165.42 78.55 173.28 76.49 173.28 76.49 163.13 80 163.13 81.79 170.51 83.58 163.13 87.08 163.13"/><path class="cls-1" d="M90.59,172.9c-.61-.37-1.06-.93-1.33-1.69-.28-.76-.41-1.75-.41-2.96s.13-2.22.41-2.99c.27-.78.72-1.35,1.33-1.73.61-.38,1.44-.57,2.46-.57s1.84.19,2.46.57c.62.38,1.07.96,1.33,1.73.28.77.41,1.77.41,2.99s-.13,2.16-.39,2.92c-.26.76-.7,1.33-1.32,1.71-.61.38-1.45.57-2.49.57s-1.85-.18-2.46-.55M94.31,171.33c.31-.22.52-.58.64-1.07.13-.49.19-1.16.19-2s-.06-1.52-.19-2.02c-.13-.5-.35-.88-.65-1.12-.3-.25-.72-.37-1.24-.37s-.94.12-1.24.37c-.31.24-.52.62-.65,1.12-.13.5-.19,1.18-.19,2.02,0,.78.06,1.42.16,1.91.11.48.32.86.62,1.12.3.26.74.39,1.31.39.54,0,.96-.11,1.26-.34"/><path class="cls-1" d="M99.02,163.13h3.94c2.39,0,3.58,1.11,3.58,3.34,0,1.33-.5,2.3-1.49,2.93l1.45,3.88h-2.25l-1.18-3.4h-1.99v3.4h-2.06v-10.14ZM102.99,168.11c.47,0,.83-.15,1.07-.44.25-.29.38-.69.38-1.19s-.13-.89-.39-1.17c-.26-.28-.62-.43-1.09-.43h-1.88v3.22h1.91Z"/><polygon class="cls-1" points="110.07 164.95 107.35 164.95 107.35 163.13 114.82 163.13 114.82 164.95 112.13 164.95 112.13 173.27 110.07 173.27 110.07 164.95"/><path class="cls-1" d="M117.27,172.9c-.6-.36-1.03-.94-1.29-1.7-.26-.76-.39-1.78-.39-3.04s.14-2.25.41-3.01.7-1.32,1.29-1.67c.59-.35,1.39-.53,2.38-.53.92,0,1.92.1,3,.31l.54.1-.06,1.6c-1.15-.13-2.13-.19-2.92-.19s-1.36.13-1.72.39c-.36.26-.58.62-.66,1.08-.09.45-.13,1.13-.13,2.02s.06,1.57.18,2.05c.12.47.34.82.65,1.03.31.22.78.32,1.39.32.59,0,1-.02,1.24-.06v-1.97h-.92v-1.79h2.95v5.27c-1.45.23-2.6.34-3.46.34-1.04,0-1.87-.18-2.47-.55"/><path class="cls-1" d="M130.3,171.44h-3.55l-.4,1.83h-2.06l2.28-10.15h3.91l2.28,10.15h-2.06l-.41-1.83ZM128.89,164.83h-.72l-1.03,4.82h2.77l-1.03-4.82Z"/><path class="cls-1" d="M135.22,172.9c-.6-.36-1.03-.94-1.29-1.7-.26-.76-.39-1.78-.39-3.04s.14-2.25.41-3.01.7-1.32,1.29-1.67c.59-.35,1.39-.53,2.38-.53.92,0,1.92.1,3,.31l.54.1-.06,1.6c-1.15-.13-2.13-.19-2.92-.19s-1.36.13-1.72.39c-.36.26-.58.62-.66,1.08-.09.45-.13,1.13-.13,2.02s.06,1.57.18,2.05c.12.47.34.82.65,1.03.31.22.78.32,1.39.32.59,0,1-.02,1.24-.06v-1.97h-.92v-1.79h2.95v5.27c-1.45.23-2.6.34-3.46.34-1.04,0-1.87-.18-2.47-.55"/><polygon class="cls-1" points="145.15 164.92 145.15 167.29 148.76 167.29 148.76 169.05 145.15 169.05 145.15 171.48 149.65 171.48 149.65 173.27 143.09 173.27 143.09 163.13 149.65 163.13 149.65 164.92 145.15 164.92"/><path class="cls-1" d="M155.88,172.9c-.6-.36-1.03-.94-1.29-1.7-.26-.76-.39-1.78-.39-3.04s.14-2.25.41-3.01c.27-.76.7-1.32,1.29-1.67.59-.35,1.39-.53,2.38-.53.92,0,1.92.1,3,.31l.54.1-.06,1.6c-1.15-.13-2.13-.19-2.92-.19s-1.36.13-1.72.39c-.36.26-.58.62-.66,1.08-.09.45-.13,1.13-.13,2.02s.06,1.57.18,2.05c.12.47.34.82.65,1.03.31.22.78.32,1.39.32.59,0,1-.02,1.24-.06v-1.97h-.92v-1.79h2.95v5.27c-1.45.23-2.6.34-3.46.34-1.04,0-1.87-.18-2.47-.55"/><path class="cls-1" d="M164.62,172.57c-.64-.59-.95-1.5-.95-2.73v-6.71h2.06v6.76c0,1.19.6,1.78,1.8,1.78s1.81-.59,1.81-1.78v-6.76h2.06v6.71c0,1.23-.32,2.15-.95,2.73-.64.59-1.61.88-2.91.88s-2.27-.29-2.91-.88"/><path class="cls-1" d="M178.59,171.44h-3.55l-.4,1.83h-2.06l2.28-10.15h3.91l2.28,10.15h-2.06l-.41-1.83ZM177.18,164.83h-.72l-1.03,4.82h2.77l-1.03-4.82Z"/><path class="cls-1" d="M182.41,163.13h3.94c2.39,0,3.58,1.11,3.58,3.34,0,1.33-.5,2.3-1.49,2.93l1.45,3.88h-2.25l-1.18-3.4h-1.99v3.4h-2.06v-10.14ZM186.38,168.11c.47,0,.83-.15,1.07-.44.25-.29.38-.69.38-1.19s-.13-.89-.39-1.17c-.26-.28-.62-.43-1.09-.43h-1.88v3.22h1.91Z"/><path class="cls-1" d="M196.71,171.44h-3.55l-.4,1.83h-2.06l2.28-10.15h3.91l2.28,10.15h-2.06l-.41-1.83ZM195.29,164.83h-.72l-1.03,4.82h2.77l-1.03-4.82Z"/><polygon class="cls-1" points="208.66 163.13 208.66 173.28 205.27 173.28 202.74 164.92 202.59 164.92 202.59 173.28 200.53 173.28 200.53 163.13 204 163.13 206.45 171.48 206.6 171.48 206.6 163.13 208.66 163.13"/><polygon class="cls-1" points="212.67 164.95 209.95 164.95 209.95 163.13 217.41 163.13 217.41 164.95 214.73 164.95 214.73 173.27 212.67 173.27 212.67 164.95"/><polygon class="cls-1" points="220.77 164.92 220.77 167.29 224.38 167.29 224.38 169.05 220.77 169.05 220.77 171.48 225.28 171.48 225.28 173.27 218.71 173.27 218.71 163.13 225.28 163.13 225.28 164.92 220.77 164.92"/><polygon class="cls-1" points="229.04 164.92 229.04 167.29 232.65 167.29 232.65 169.05 229.04 169.05 229.04 171.48 233.54 171.48 233.54 173.27 226.98 173.27 226.98 163.13 233.54 163.13 233.54 164.92 229.04 164.92"/><path class="cls-1" d="M238.63,173.09l-.54-.1.21-1.6c1.33.18,2.35.27,3.06.27,1.05,0,1.58-.44,1.58-1.32,0-.36-.14-.62-.42-.79-.28-.17-.75-.35-1.4-.54-.79-.22-1.4-.46-1.86-.73-.45-.27-.78-.59-.98-.95-.2-.37-.31-.83-.31-1.38,0-.99.31-1.74.91-2.25.6-.51,1.46-.76,2.55-.76.42,0,.87.03,1.33.09.46.06,1.13.16,2.01.32l-.16,1.62c-1.36-.16-2.35-.24-2.97-.24-1.08,0-1.63.36-1.63,1.07,0,.25.09.45.27.61.18.16.4.29.67.4.27.1.72.25,1.36.45.69.22,1.22.45,1.6.69.38.24.65.53.82.89.17.35.25.81.25,1.37,0,1.04-.31,1.84-.95,2.4-.63.56-1.48.83-2.56.83-.78,0-1.72-.12-2.85-.36"/><polygon class="cls-1" points="248.7 164.92 248.7 167.29 252.31 167.29 252.31 169.05 248.7 169.05 248.7 171.48 253.2 171.48 253.2 173.27 246.64 173.27 246.64 163.13 253.2 163.13 253.2 164.92 248.7 164.92"/><path class="cls-1" d="M254.91,163.13h3.94c2.39,0,3.58,1.11,3.58,3.34,0,1.33-.49,2.3-1.49,2.93l1.45,3.88h-2.25l-1.18-3.4h-1.99v3.4h-2.06v-10.14ZM258.87,168.11c.47,0,.83-.15,1.07-.44.25-.29.38-.69.38-1.19s-.13-.89-.39-1.17c-.26-.28-.62-.43-1.09-.43h-1.88v3.22h1.91Z"/><polygon class="cls-1" points="263.16 163.13 265.32 163.13 267.08 171.48 267.75 171.48 269.51 163.13 271.68 163.13 269.32 173.28 265.51 173.28 263.16 163.13"/><rect class="cls-1" x="273.01" y="163.13" width="2.06" height="10.15"/><path class="cls-1" d="M278.39,172.89c-.58-.38-.97-.94-1.19-1.68-.22-.74-.32-1.73-.32-2.96,0-1.35.12-2.41.35-3.16.23-.76.63-1.3,1.17-1.63s1.31-.5,2.3-.5c.91,0,1.91.14,3.03.41l-.06,1.64c-.98-.15-1.79-.22-2.4-.22s-1.1.1-1.42.3c-.32.2-.54.53-.66.98-.12.45-.19,1.09-.19,1.92v.55c.02.85.08,1.49.19,1.92.1.42.31.73.62.92.31.19.78.28,1.42.28.67,0,1.49-.07,2.44-.21l.05,1.68c-1.09.23-2.04.34-2.85.34-1.07,0-1.9-.19-2.47-.57"/><polygon class="cls-1" points="287.44 164.92 287.44 167.29 291.06 167.29 291.06 169.05 287.44 169.05 287.44 171.48 291.95 171.48 291.95 173.27 285.39 173.27 285.39 163.13 291.95 163.13 291.95 164.92 287.44 164.92"/><path class="cls-1" d="M293.76,173.09l-.54-.1.21-1.6c1.33.18,2.35.27,3.06.27,1.05,0,1.58-.44,1.58-1.32,0-.36-.14-.62-.42-.79-.28-.17-.75-.35-1.4-.54-.79-.22-1.4-.46-1.86-.73-.45-.27-.78-.59-.98-.95-.2-.37-.31-.83-.31-1.38,0-.99.31-1.74.91-2.25.6-.51,1.46-.76,2.55-.76.42,0,.87.03,1.33.09.46.06,1.13.16,2.01.32l-.16,1.62c-1.36-.16-2.35-.24-2.97-.24-1.08,0-1.63.36-1.63,1.07,0,.25.09.45.27.61.18.16.4.29.67.4.27.1.72.25,1.36.45.69.22,1.22.45,1.6.69.38.24.65.53.82.89.17.35.25.81.25,1.37,0,1.04-.31,1.84-.95,2.4-.63.56-1.48.83-2.56.83-.78,0-1.72-.12-2.85-.36"/><path class="cls-1" d="M306.15,172.89c-.58-.38-.97-.94-1.19-1.68-.22-.74-.32-1.73-.32-2.96,0-1.35.12-2.41.35-3.16.23-.76.63-1.3,1.17-1.63s1.31-.5,2.3-.5c.91,0,1.91.14,3.03.41l-.06,1.64c-.98-.15-1.79-.22-2.4-.22s-1.1.1-1.42.3c-.32.2-.54.53-.66.98-.12.45-.19,1.09-.19,1.92v.55c.02.85.08,1.49.19,1.92.1.42.31.73.62.92.31.19.78.28,1.42.28.67,0,1.49-.07,2.44-.21l.05,1.68c-1.09.23-2.04.34-2.85.34-1.07,0-1.9-.19-2.47-.57"/><path class="cls-1" d="M314.36,172.9c-.61-.37-1.06-.93-1.33-1.69-.28-.76-.41-1.75-.41-2.96s.13-2.22.41-2.99c.27-.78.72-1.35,1.33-1.73.61-.38,1.44-.57,2.46-.57s1.84.19,2.46.57c.62.38,1.07.96,1.33,1.73.28.77.41,1.77.41,2.99s-.13,2.16-.39,2.92c-.26.76-.7,1.33-1.32,1.71-.61.38-1.45.57-2.49.57s-1.85-.18-2.46-.55M318.08,171.33c.31-.22.52-.58.64-1.07.13-.49.19-1.16.19-2s-.06-1.52-.19-2.02c-.13-.5-.35-.88-.65-1.12-.3-.25-.72-.37-1.24-.37s-.94.12-1.24.37c-.31.24-.52.62-.65,1.12-.13.5-.19,1.18-.19,2.02,0,.78.05,1.42.16,1.91.11.48.32.86.62,1.12.3.26.74.39,1.3.39.54,0,.96-.11,1.26-.34"/><polygon class="cls-1" points="333.38 163.13 333.38 173.28 331.32 173.28 331.32 165.42 331.1 165.42 329.11 172.82 327.06 172.82 325.07 165.42 324.85 165.42 324.85 173.28 322.79 173.28 322.79 163.13 326.3 163.13 328.09 170.51 329.87 163.13 333.38 163.13"/><path class="cls-1" d="M335.59,163.13h3.73c2.41,0,3.61,1.17,3.61,3.52,0,1.19-.31,2.11-.92,2.73-.61.63-1.51.94-2.69.94h-1.67v2.95h-2.06v-10.14ZM339.3,168.56c1.02,0,1.54-.64,1.54-1.91,0-.62-.12-1.06-.37-1.34-.24-.28-.63-.41-1.17-.41h-1.65v3.67h1.65Z"/><path class="cls-1" d="M349.25,171.44h-3.55l-.4,1.83h-2.06l2.28-10.15h3.91l2.28,10.15h-2.06l-.41-1.83ZM347.84,164.83h-.72l-1.03,4.82h2.77l-1.03-4.82Z"/><polygon class="cls-1" points="361.2 163.13 361.2 173.28 357.82 173.28 355.28 164.92 355.13 164.92 355.13 173.28 353.08 173.28 353.08 163.13 356.55 163.13 359 171.48 359.15 171.48 359.15 163.13 361.2 163.13"/><polygon class="cls-1" points="365.44 169.17 362.31 163.13 364.59 163.13 366.45 167.17 368.32 163.13 370.6 163.13 367.5 169.17 367.5 173.27 365.44 173.27 365.44 169.17"/><path class="cls-1" d="M7.84,143.19c-.13.3-.25.65-.34,1.07-.09.42-.14.84-.14,1.27,0,.32.04.63.11.92.07.29.19.54.38.76.18.22.45.39.79.51.34.12.79.19,1.35.19h3.47v-3.76c0-1.29.35-2.29,1.05-2.98s1.69-1.05,2.99-1.05c.38,0,.75.01,1.12.03.37,0,.74.02,1.12.03.3,0,.55.12.74.33.19.21.29.47.29.76v6.63h1.86v2.13h-2.91c-.3,0-.55-.1-.75-.31-.21-.2-.31-.46-.31-.76v-6.7l-1.2-.03c-.36,0-.66.04-.9.1-.24.07-.43.18-.57.33s-.24.35-.3.59c-.06.24-.09.55-.09.9v4.7c.01.33-.08.61-.27.84-.19.23-.45.34-.79.34h-4.52c-.87,0-1.61-.13-2.22-.39-.61-.26-1.1-.6-1.46-1.03-.37-.42-.64-.91-.8-1.45-.17-.54-.25-1.1-.25-1.67,0-.61.07-1.21.21-1.79.14-.58.31-1.08.51-1.5l1.88.99ZM8.45,153.35c0-.16.03-.32.09-.46.06-.14.14-.26.25-.37.1-.1.23-.19.37-.25.14-.06.29-.09.46-.09s.32.03.46.09.26.14.37.25c.11.11.19.23.25.37.06.14.09.3.09.46,0,.32-.11.6-.34.82-.22.22-.5.33-.83.33s-.61-.11-.83-.33c-.22-.22-.33-.49-.33-.82M11.72,153.35c0-.16.03-.32.09-.46.06-.14.14-.26.25-.37.11-.1.23-.19.37-.25.13-.06.29-.09.45-.09s.32.03.45.09.26.14.37.25c.1.11.19.23.25.37.06.14.09.3.09.46,0,.32-.11.6-.33.82-.22.22-.5.33-.83.33s-.61-.11-.83-.33c-.22-.22-.33-.49-.33-.82"/><path class="cls-1" d="M22.33,147.89h3.41v-7.38h2.12v8.34s.01.07.01.1c0,.3-.1.55-.31.76-.21.2-.45.31-.76.31h-4.48v-2.13ZM25.64,137.05c0-.33.11-.61.33-.83.22-.22.5-.34.83-.34s.61.11.83.34c.22.23.34.5.34.83s-.11.61-.34.83c-.22.22-.5.33-.83.33s-.61-.11-.83-.33c-.22-.22-.33-.5-.33-.83"/><path class="cls-1" d="M35.02,150.02h-3.45c-.29,0-.54-.1-.75-.31-.21-.21-.31-.46-.31-.76,0-.04,0-.07.01-.1v-13.04h2.12v12.09h2.39v2.13Z"/><path class="cls-1" d="M48.72,147.89h2.01v2.13h-15.97v-2.13h11.81v-1.51c0-.5-.01-.89-.04-1.17-.03-.27-.11-.48-.23-.61-.12-.13-.3-.22-.54-.25-.24-.03-.56-.05-.97-.05-1.06,0-2.11,0-3.16-.01-1.05,0-2.1-.01-3.16-.01-.3,0-.56-.05-.78-.14-.22-.09-.4-.22-.54-.37-.14-.15-.25-.33-.32-.54-.07-.2-.11-.42-.11-.66,0-.87.72-2.05,2.16-3.56,1.44-1.5,2.35-2.49,2.74-2.95l1.55,1.62-4.11,4.49h4.91c.61,0,1.16.01,1.63.03.47.02.89.07,1.24.14.36.07.65.19.89.35.24.16.43.38.58.66.15.28.26.63.32,1.05.06.42.1.94.1,1.54v1.94Z"/><path class="cls-1" d="M50.52,147.89h2.58v-7.38h2.13v7.38h3.22v-7.38h2.12v7.38h3.22v-7.38h2.12v8.44c0,.3-.1.55-.31.76-.21.21-.45.31-.75.31h-14.32v-2.13Z"/><path class="cls-1" d="M71.9,148.82c-.02-1.01-.11-2.02-.28-3.03-.17-1.01-.42-2-.76-2.97-.34-.97-.78-1.9-1.32-2.79s-1.17-1.73-1.92-2.5c.14-.15.27-.28.4-.39.12-.12.24-.24.36-.37.12-.12.24-.24.36-.36.12-.12.25-.25.38-.38.67.68,1.27,1.43,1.8,2.23.52.8.98,1.64,1.36,2.5.38.86.7,1.73.95,2.62.25.89.44,1.77.57,2.64.04.32.09.65.12,1,.03.35.06.72.08,1.11.48-.4.86-.85,1.14-1.35.28-.5.43-1.08.47-1.74v-9.22h2.11v9.36c-.07.82-.21,1.52-.42,2.11-.21.59-.48,1.1-.82,1.53s-.74.78-1.22,1.06c-.47.28-1,.52-1.6.72-.59.2-1.24.37-1.96.51-.72.14-1.48.28-2.3.42-.06-.38-.12-.73-.17-1.05-.05-.32-.1-.67-.16-1.03.5-.06.96-.14,1.39-.22.43-.09.83-.18,1.21-.26l.22-.13ZM68.75,154.97c-.04-.09-.07-.18-.07-.27-.01-.09-.02-.19-.02-.28,0-.2.03-.39.1-.57.06-.19.16-.35.28-.5.12-.15.28-.26.46-.35.19-.09.4-.13.63-.13h1.32v.98l-1.32-.02c-.21,0-.37.06-.46.19-.09.12-.14.25-.14.39,0,.13.04.26.13.37.09.11.23.18.41.19h1.48v.98h-3.24v-.98h.45Z"/><rect class="cls-1" x="80.62" y="135.81" width="2.1" height="14.19"/><path class="cls-1" d="M92.83,141.2v4.24c0,.43.08.81.23,1.12.16.32.37.58.63.79.26.21.57.37.91.46.34.1.69.15,1.04.15s.7-.05,1.04-.15c.34-.1.64-.25.9-.46.26-.21.47-.47.63-.79.16-.31.23-.69.23-1.12v-5h2.14v5c0,.76-.14,1.42-.43,2-.28.58-.66,1.07-1.12,1.46s-1,.69-1.59.89c-.59.2-1.2.3-1.81.3s-1.23-.1-1.83-.3c-.6-.2-1.13-.5-1.58-.89-.46-.39-.83-.88-1.11-1.46-.28-.58-.42-1.25-.42-2v-4.24h2.13ZM94.19,137.06c0-.33.11-.61.33-.83.22-.22.49-.33.82-.33.16,0,.32.03.46.09.14.06.26.14.37.25.1.1.19.23.25.37.06.14.09.29.09.45s-.03.32-.09.46c-.06.13-.14.26-.25.36-.11.11-.23.19-.37.25-.15.06-.3.09-.46.09-.32,0-.6-.11-.82-.33-.22-.22-.33-.5-.33-.83"/><path class="cls-1" d="M107.31,150.02h-3.45c-.29,0-.54-.1-.75-.31-.21-.21-.31-.46-.31-.76,0-.04,0-.07.01-.1v-13.04h2.12v12.09h2.39v2.13Z"/><path class="cls-1" d="M107.14,150.02v-2.13h2.01v-3.22c0-.54.12-1.08.36-1.63.24-.55.57-1.05.98-1.49.41-.44.9-.8,1.46-1.07.57-.27,1.17-.4,1.81-.37.61,0,1.23.01,1.85.02.62.01,1.23.02,1.85.04.14,0,.28.03.41.08s.24.13.34.22c.09.1.17.21.22.33.05.13.08.26.08.4v6.68h1.84v2.13h-13.22ZM111.28,147.89h5.11v-5.63c-.21,0-.43,0-.64,0-.22,0-.42,0-.62-.01-.19,0-.38,0-.56,0h-.4c-.21,0-.33-.01-.37-.01h-.09c-.31,0-.6.07-.89.21-.29.15-.55.33-.78.55-.23.22-.41.48-.55.78-.14.29-.2.59-.2.9v3.23Z"/><path class="cls-1" d="M120.14,150.02v-2.13h2.07v-7.65h2.12v2.36c.1-.29.27-.59.52-.88.25-.29.56-.56.91-.8.35-.23.75-.43,1.17-.58.42-.15.85-.23,1.28-.23.8.01,1.59.02,2.39.03.8,0,1.6.02,2.4.03.14,0,.28.03.41.08.13.06.24.13.34.23.09.09.17.21.22.33.06.12.08.26.08.4v6.69h1.77v2.13h-15.68ZM128.14,142.23c-.48,0-.95.06-1.4.18-.45.12-.85.31-1.2.56-.35.25-.64.57-.86.96-.22.39-.34.84-.35,1.36v2.6h7.59v-5.63c-1.21-.01-2.14-.03-2.77-.03-.64,0-.97,0-1.01,0M126.87,137.09c0-.33.11-.61.34-.83.23-.22.5-.34.82-.34.16,0,.32.03.46.09.14.06.26.14.37.25.1.11.19.23.25.37.06.15.09.29.09.46s-.03.32-.09.46c-.06.13-.15.26-.25.36-.11.11-.23.19-.37.25-.14.06-.3.09-.46.09-.32,0-.6-.11-.82-.33-.22-.22-.34-.5-.34-.83"/><path class="cls-1" d="M135.66,147.89h2.33v-12.09h2.12v13.04s.01.07.01.11c0,.3-.1.55-.31.76-.21.21-.46.31-.75.31h-3.39v-2.13Z"/><rect class="cls-1" x="143.24" y="135.81" width="2.11" height="14.19"/><path class="cls-1" d="M166.55,140.51v8.44c0,.3-.1.56-.31.76-.2.2-.45.31-.75.31h-7.52c-.89,0-1.64-.13-2.24-.39-.6-.26-1.09-.61-1.46-1.04-.37-.43-.63-.91-.8-1.46-.16-.54-.24-1.09-.24-1.64,0-.62.07-1.21.21-1.79.14-.57.31-1.08.52-1.5.35.19.67.35.95.5.28.14.58.3.92.48-.13.31-.25.67-.34,1.08-.1.41-.14.83-.14,1.26,0,.32.03.63.1.91.07.29.19.54.38.75.19.22.44.39.77.52.32.13.75.2,1.26.21h6.59v-7.39h2.12ZM157.26,138.06c0-.16.03-.32.09-.46.06-.14.14-.26.25-.37.1-.1.23-.19.37-.25.14-.06.29-.09.45-.09s.32.03.45.09c.14.06.26.14.37.25.1.11.19.23.25.37.06.15.09.3.09.46,0,.32-.11.6-.33.82-.22.22-.5.33-.83.33s-.61-.11-.83-.33c-.22-.22-.33-.49-.33-.82M160.53,138.06c0-.16.03-.32.09-.46.06-.14.14-.26.24-.37.1-.1.22-.19.37-.25.14-.06.29-.09.45-.09.33,0,.61.11.83.34.22.23.34.5.34.83,0,.16-.03.31-.09.45-.06.15-.14.27-.25.37-.11.1-.23.18-.37.24-.14.06-.3.09-.46.09-.32,0-.6-.11-.82-.33-.22-.22-.33-.49-.33-.82"/><path class="cls-1" d="M173.41,150.02h-3.45c-.29,0-.54-.1-.75-.31-.21-.21-.31-.46-.31-.76,0-.04,0-.07.01-.1v-13.04h2.12v12.09h2.39v2.13Z"/><path class="cls-1" d="M173.22,147.89h2.05v-3.22c0-.54.12-1.08.36-1.63.24-.55.57-1.05.98-1.49.41-.44.9-.8,1.46-1.07s1.17-.4,1.8-.37c.62,0,1.23.01,1.85.02.62.01,1.23.02,1.85.04.14,0,.28.03.41.08.13.06.24.13.34.22.09.1.17.21.22.33.05.13.08.26.08.4v7.63c0,.33-.09.61-.28.84-.18.23-.44.34-.77.34h-10.36v-2.13ZM177.39,147.89h5.11v-5.63c-.22,0-.43,0-.64,0-.22,0-.42,0-.62-.01-.2,0-.38,0-.56,0h-.4c-.2,0-.33-.01-.37-.01h-.08c-.31,0-.6.07-.89.21-.29.15-.56.33-.78.55-.23.22-.41.48-.55.78-.14.29-.2.59-.2.9v3.23Z"/><path class="cls-1" d="M186.85,150.01v-2.13h6.89c-.05-1-.16-1.85-.34-2.55-.18-.69-.45-1.25-.8-1.67-.42-.47-1.03-.82-1.82-1.05-.79-.24-1.81-.34-3.09-.33,0-.4,0-.76-.01-1.08,0-.31-.01-.66-.01-1.04.8,0,1.54.03,2.2.11.66.08,1.26.21,1.8.38.53.17,1.01.39,1.43.66.42.27.79.58,1.11.94.54.62.93,1.4,1.18,2.32.25.92.41,2.03.47,3.31h1.5v2.13h-10.51Z"/><path class="cls-1" d="M199.21,140.19c.21.02.39.03.55.03.16,0,.36.01.6.02.56.02,1.15.06,1.77.1.61.04,1.22.15,1.82.31.6.16,1.17.4,1.71.72.54.32,1.03.75,1.45,1.31.42.56.76,1.26,1.03,2.11s.42,1.88.45,3.1h1.95v2.13h-13.44v-2.13h9.37c-.05-.92-.19-1.69-.42-2.33-.23-.63-.53-1.16-.88-1.56-.35-.41-.76-.73-1.21-.96-.45-.23-.91-.4-1.39-.5-.48-.11-.96-.17-1.44-.2-.48-.02-.93-.03-1.35-.03-.13,0-.25,0-.38,0-.12,0-.24,0-.35,0l.17-2.12ZM200.72,137.11c0-.33.11-.61.33-.83.22-.22.49-.33.82-.33.16,0,.32.03.46.09.14.06.26.14.37.25.1.1.19.23.25.37s.09.29.09.45-.03.32-.09.46c-.06.13-.14.26-.25.36-.11.11-.23.19-.37.25-.15.06-.3.09-.46.09-.32,0-.6-.11-.82-.33-.22-.22-.33-.5-.33-.83"/><path class="cls-1" d="M210.43,147.89h2.33v-12.09h2.12v13.04s.01.07.01.11c0,.3-.1.55-.31.76-.21.21-.46.31-.75.31h-3.39v-2.13Z"/><path class="cls-1" d="M233.42,150.02h-3.13c-.33,0-.59-.12-.78-.34-.19-.23-.29-.51-.29-.83l-.02-6.61h-2.54c-.35-.01-.67.06-.98.19-.31.14-.58.32-.81.55-.23.23-.41.5-.54.81-.13.31-.19.63-.19.98v3.03c.32.04.59.07.81.11.23.03.47.05.73.05s.58-.03.94-.08c.35-.05.82-.13,1.39-.25.03.39.06.75.09,1.07.03.32.07.67.1,1.05-.56.09-1.08.15-1.57.19-.49.04-.95.06-1.38.05-.44,0-.86-.04-1.26-.09-.4-.06-.8-.13-1.18-.24-.23-.04-.41-.16-.56-.35s-.21-.41-.21-.66v-3.86c0-.64.12-1.25.36-1.81.24-.57.57-1.06.99-1.48.42-.42.91-.75,1.48-1,.57-.25,1.17-.37,1.82-.37h3.23c.18,0,.36.04.53.11.17.08.31.18.44.3.13.12.23.26.31.43.08.16.12.34.13.52l.04,6.42h2.08v2.13ZM224.57,137.09c0-.33.11-.61.33-.83.22-.22.5-.34.82-.34.16,0,.32.03.46.09.14.06.26.14.37.25.1.11.19.23.25.37.06.15.09.29.09.46s-.03.32-.09.46c-.06.13-.15.26-.25.36-.11.11-.23.19-.37.25-.14.06-.3.09-.46.09-.32,0-.59-.11-.82-.33-.22-.22-.33-.5-.33-.83M227.83,137.09c0-.33.11-.61.33-.83.22-.22.5-.34.83-.34.16,0,.32.03.46.09.14.06.26.14.37.25.1.11.19.23.25.37.06.15.09.29.09.46s-.03.32-.09.46c-.06.13-.14.26-.25.36-.11.11-.23.19-.37.25-.14.06-.3.09-.46.09-.33,0-.61-.11-.83-.33-.22-.22-.33-.5-.33-.83"/><path class="cls-1" d="M233.22,147.9h4.03v-7.38h2.12v8.34s0,.07,0,.11c0,.15-.03.29-.08.42-.06.13-.13.24-.23.34-.1.1-.21.17-.34.23-.13.05-.27.08-.42.08h-5.09v-2.13ZM233.22,153.58c0-.33.11-.61.33-.83.22-.22.5-.34.83-.34s.61.11.83.34c.22.23.34.5.34.83s-.11.61-.34.83-.5.33-.83.33-.61-.11-.83-.33c-.22-.22-.33-.5-.33-.83M236.48,153.58c0-.33.11-.61.33-.83.22-.22.5-.34.83-.34s.61.11.83.34c.22.23.33.5.33.83s-.11.61-.33.83c-.22.22-.5.33-.83.33s-.61-.11-.83-.33c-.22-.22-.33-.5-.33-.83"/><path class="cls-1" d="M242.67,140.17c1.62,0,2.95.16,4.01.49,1.05.34,1.9.87,2.54,1.6.32.37.59.78.8,1.24.21.45.38.97.51,1.52.13.56.22,1.17.28,1.83.05.66.08,1.38.08,2.15,0,.3-.1.55-.31.76-.2.2-.46.31-.76.31h-7.98v-2.13h6.91c-.06-1-.17-1.86-.35-2.57-.18-.71-.45-1.28-.8-1.7-.43-.47-1.04-.82-1.83-1.06-.79-.23-1.82-.34-3.09-.32l-.03-2.12Z"/><path class="cls-1" d="M262,150.02c-.17.81-.42,1.58-.73,2.3-.31.72-.73,1.35-1.24,1.88-.51.54-1.12.97-1.84,1.29-.72.32-1.58.5-2.56.52v-2.13c.65-.02,1.2-.13,1.66-.34.46-.2.85-.48,1.18-.82.32-.34.6-.75.82-1.21.22-.46.42-.96.59-1.49-.42.05-.83.09-1.21.11-.39.03-.75.04-1.09.04s-.67-.01-1-.03c-.33-.03-.66-.06-.99-.1h.01c-.06-.01-.13-.03-.21-.04-.08,0-.15-.02-.23-.03-.26-.04-.52-.09-.79-.13-.27-.05-.51-.12-.72-.22-.22-.09-.39-.22-.52-.37-.13-.15-.2-.35-.2-.6v-3.87c0-.64.12-1.24.36-1.81.24-.57.57-1.06.99-1.49.42-.42.92-.75,1.48-1,.56-.24,1.17-.37,1.82-.37h3.23c.2,0,.38.04.56.11.18.07.32.18.45.3.13.13.23.28.3.45.07.18.11.37.11.56,0,.3,0,.62.01.95,0,.33.02.68.04,1.03.02.41.03.83.05,1.26.01.43.02.87.02,1.33,0,.49-.01.98-.04,1.48v.29s1.94,0,1.94,0v2.13h-2.24ZM257.57,148.04c.42,0,.85-.02,1.28-.07.43-.04.86-.11,1.29-.19.02-.26.03-.56.04-.9,0-.34.01-.64.01-.91,0-.52-.01-1.05-.03-1.6-.02-.55-.03-1.06-.04-1.53v-.12c0-.06,0-.11,0-.17,0-.06,0-.12,0-.17v-.13h-2.54c-.35-.01-.67.06-.98.2-.31.14-.58.32-.81.55-.23.23-.41.5-.54.81-.13.31-.2.64-.2.98v3c.3.06.54.12.76.15.21.03.41.06.59.07.18.02.35.03.52.03.17,0,.35,0,.53,0h.13Z"/><path class="cls-1" d="M264.06,147.89h3.69l-1.65-2.54c-.23-.35-.39-.7-.5-1.03-.1-.33-.15-.66-.15-.98,0-.41.09-.81.26-1.2.17-.39.42-.73.74-1.03.32-.3.7-.54,1.16-.72.45-.18.95-.27,1.51-.27h2.7c.5,0,.97.08,1.41.24.45.16.84.39,1.17.67.33.29.6.63.8,1.04.2.4.3.84.3,1.32,0,.63-.22,1.29-.66,1.96l-1.65,2.54h3.67v2.13h-12.78v-2.13ZM270.27,147.89h.38l2.41-3.7c.2-.3.29-.58.29-.85,0-.18-.05-.34-.14-.48-.1-.14-.22-.26-.36-.35-.15-.09-.31-.17-.5-.21-.18-.04-.37-.07-.55-.07h-2.7c-.2,0-.4.03-.59.09-.19.06-.35.14-.49.24-.15.1-.26.21-.34.35-.09.14-.12.28-.12.43,0,.28.09.56.28.85l2.41,3.7Z"/><polygon class="cls-1" points="276.67 150.02 276.67 147.89 278.65 147.89 278.65 140.52 280.78 140.52 280.78 147.89 284 147.89 284 140.52 286.11 140.52 286.11 147.89 289.33 147.89 289.33 140.52 291.45 140.52 291.45 147.89 293.42 147.89 293.42 150.02 276.67 150.02"/><path class="cls-1" d="M293.28,147.89h2.33v-12.09h2.12v13.04s.01.07.01.11c0,.3-.1.55-.31.76-.21.21-.46.31-.75.31h-3.39v-2.13Z"/><rect class="cls-1" x="300.86" y="135.81" width="2.11" height="14.19"/><path class="cls-1" d="M322.25,150.02h-3.13c-.33,0-.59-.12-.78-.34-.19-.23-.29-.51-.29-.83l-.02-6.61h-2.54c-.35-.01-.67.06-.98.19-.31.14-.58.32-.81.55-.23.23-.41.5-.54.81-.13.31-.19.63-.19.98v3.03c.32.04.59.07.81.11.22.03.47.05.73.05s.58-.03.94-.08c.35-.05.82-.13,1.39-.25.03.39.06.75.09,1.07.03.32.07.67.1,1.05-.56.09-1.08.15-1.57.19-.49.04-.95.06-1.38.05-.44,0-.86-.04-1.26-.09-.4-.06-.8-.13-1.18-.24-.23-.04-.41-.16-.56-.35s-.22-.41-.22-.66v-3.86c0-.64.12-1.25.37-1.81.24-.57.57-1.06.99-1.48.42-.42.91-.75,1.48-1,.57-.25,1.17-.37,1.82-.37h3.23c.18,0,.36.04.53.11.17.08.31.18.44.3.13.12.23.26.31.43.08.16.12.34.13.52l.04,6.42h2.08v2.13ZM313.41,137.09c0-.33.11-.61.33-.83.22-.22.5-.34.82-.34.16,0,.32.03.46.09.14.06.26.14.37.25.1.11.19.23.25.37.06.15.09.29.09.46s-.03.32-.09.46c-.06.13-.15.26-.25.36-.11.11-.23.19-.37.25-.14.06-.3.09-.46.09-.32,0-.59-.11-.82-.33-.22-.22-.33-.5-.33-.83M316.66,137.09c0-.33.11-.61.33-.83.22-.22.5-.34.83-.34.16,0,.32.03.46.09.14.06.26.14.37.25.1.11.19.23.25.37.06.15.09.29.09.46s-.03.32-.09.46c-.06.13-.14.26-.25.36-.11.11-.23.19-.37.25-.14.06-.3.09-.46.09-.33,0-.61-.11-.83-.33-.22-.22-.33-.5-.33-.83"/><path class="cls-1" d="M336.06,146h.01v1.35c0,.25,0,.51,0,.77,0,.26,0,.54,0,.84s-.1.55-.31.76c-.21.21-.45.31-.75.31h-12.88v-2.13h11.8v-.54h-.01v-.97c0-.5-.01-.89-.05-1.17-.03-.28-.11-.48-.23-.62-.12-.13-.3-.22-.54-.25-.23-.03-.56-.05-.97-.05-1.06,0-2.11,0-3.16-.01-1.05,0-2.1-.01-3.16-.01-.3,0-.56-.05-.78-.14-.22-.1-.4-.22-.54-.37-.14-.16-.25-.34-.32-.54-.07-.21-.11-.43-.11-.66,0-.87.72-2.05,2.16-3.56,1.44-1.5,2.35-2.49,2.74-2.95l1.55,1.62-4.11,4.49h4.91c.61,0,1.16,0,1.63.03.47.02.89.07,1.24.14.36.07.65.19.89.35.24.16.43.38.58.66.15.28.26.63.32,1.05.06.42.1.94.1,1.55v.04Z"/><path class="cls-1" d="M341.38,143.47c-.02-.3-.03-.59-.03-.88-.01-.28-.01-.55-.01-.82h2.11c0,.06,0,.21,0,.42,0,.22.01.47.03.76.01.29.02.6.03.94,0,.34.02.66.03.96.01.3.02.57.03.79,0,.23,0,.38,0,.46,0,.13,0,.26,0,.42,0,.16-.01.31-.01.47,0,.16,0,.31-.01.47,0,.15,0,.29-.02.42h1.81v2.13h-2.09c-.17.82-.42,1.59-.73,2.3-.32.71-.73,1.34-1.24,1.88-.51.54-1.12.97-1.84,1.29-.72.32-1.57.49-2.56.51v-2.14c.69-.03,1.29-.16,1.78-.39.49-.23.91-.53,1.24-.91.34-.38.61-.82.81-1.32.2-.51.35-1.04.47-1.61.11-.57.18-1.17.21-1.78.03-.62.04-1.23.04-1.83,0-.43,0-.86,0-1.29-.01-.43-.02-.85-.04-1.25"/><path class="cls-1" d="M345.16,150.02v-2.13h1.99v-7.38h2.13v7.38h3.22v-7.38h2.12v7.38h3.22v-7.38h2.12v7.38h1.98v2.13h-16.76ZM350.43,137.09c0-.33.11-.61.33-.83.22-.22.49-.34.81-.34.17,0,.32.03.46.09.14.06.27.14.37.25.11.11.19.23.25.37.06.15.09.29.09.46s-.03.32-.09.46c-.06.13-.14.26-.25.36-.1.11-.23.19-.37.25-.14.06-.29.09-.46.09-.32,0-.59-.11-.81-.33-.22-.22-.33-.5-.33-.83M352.38,133.94c0-.16.03-.32.09-.46.06-.14.14-.26.25-.37.11-.1.23-.19.37-.25.14-.06.29-.09.45-.09.33,0,.61.11.83.34.22.23.34.5.34.83,0,.16-.03.31-.09.45-.06.14-.14.27-.25.37-.11.11-.23.19-.37.25-.14.06-.29.09-.46.09-.32,0-.6-.11-.82-.34-.22-.22-.34-.5-.34-.82M354.33,137.09c0-.33.11-.61.33-.83.22-.22.5-.34.83-.34s.61.11.83.34c.22.23.33.5.33.83s-.11.61-.33.83c-.22.22-.5.33-.83.33s-.61-.11-.83-.33c-.22-.22-.33-.5-.33-.83"/><path class="cls-1" d="M361.77,147.89h2.33v-12.09h2.12v13.04s.01.07.01.11c0,.3-.1.55-.31.76-.21.21-.46.31-.75.31h-3.39v-2.13Z"/><rect class="cls-1" x="369.35" y="135.81" width="2.11" height="14.19"/><polygon class="cls-1" points="524.95 175.25 545.84 175.25 545.84 35.55 524.95 .32 524.95 175.25"/><path class="cls-1" d="M401.84,41.37v7.62c8.05-6.46,16.89-9.47,21.81-7.46-9.25,6.72-16.33,9.47-21.81,10.38v2.09c9.19-4.45,22.77-2.68,29.77,4.27-9.7-.94-20.02-1.93-29.77-2.87v3.2c34.67,2.11,57.38,21.9,57.38,49.97-17.27-19.24-33.98-37.58-57.38-49.23v4.5c34.74,18.25,42.1,64.27,30.69,99.91-10.26-32.04-20.51-64.03-30.69-95.82v107.32h120.77V0l-120.77,41.37Z"/><path class="cls-1" d="M25.81,111.54c-2.62-.32-5.05-.85-7.27-1.56-2.23-.72-4.26-1.63-6.09-2.75-1.83-1.11-3.57-2.46-5.23-4.04-2.66-2.51-4.53-5.77-5.6-9.75-1.08-3.99-1.62-8.17-1.62-12.56v-24.87l15.09,4.5v18.54c0,3.23.34,5.98,1.02,8.24.68,2.27,1.85,4.12,3.5,5.55,1.87,1.58,4.2,2.66,7.01,3.23,2.8.57,5.82.86,9.05.86h30.18v-50.09l15.09,4.5v60.68h-46.35c-3.23,0-6.16-.16-8.78-.48M23.39,45.9c-1.65-1.33-2.48-3.25-2.48-5.77,0-2.3.81-4.15,2.43-5.55,1.62-1.4,3.61-2.1,5.98-2.1s4.36.7,5.98,2.1c1.62,1.4,2.43,3.25,2.43,5.55,0,2.52-.83,4.44-2.48,5.77-1.65,1.33-3.63,1.99-5.93,1.99s-4.27-.66-5.93-1.99M46.78,45.9c-1.65-1.33-2.48-3.25-2.48-5.77,0-2.3.8-4.15,2.42-5.55,1.62-1.4,3.61-2.1,5.99-2.1s4.45.7,6.03,2.1c1.58,1.4,2.37,3.25,2.37,5.55,0,2.52-.82,4.44-2.48,5.77-1.65,1.33-3.63,1.99-5.93,1.99s-4.28-.66-5.93-1.99"/><polygon class="cls-1" points="116.62 24.61 116.62 96.93 130.41 96.93 130.41 112.02 101.53 112.02 101.53 20.11 116.62 24.61"/><path class="cls-1" d="M141.62,96.93v-50.09l15.09,4.5v60.68h-28.45v-15.09h13.36ZM142.64,40.13c-1.76-1.36-2.64-3.38-2.64-6.04,0-2.37.85-4.29,2.53-5.77,1.69-1.47,3.79-2.21,6.31-2.21s4.62.74,6.31,2.21c1.69,1.48,2.53,3.4,2.53,5.77,0,2.66-.88,4.67-2.64,6.04-1.76,1.36-3.82,2.05-6.2,2.05s-4.43-.68-6.2-2.05"/><polygon class="cls-1" points="192.27 24.61 192.27 96.93 206.07 96.93 206.07 112.02 177.18 112.02 177.18 20.11 192.27 24.61"/><path class="cls-1" d="M214.37,96.93c-.29-1.08-.48-2.19-.59-3.34-.11-1.15-.16-2.34-.16-3.56,0-4.6.85-8.9,2.53-12.88,1.69-3.99,3.99-7.47,6.9-10.45,2.91-2.99,6.32-5.34,10.24-7.06,3.92-1.73,8.11-2.59,12.56-2.59s8.78.84,12.77,2.53c3.99,1.69,7.48,4.01,10.46,6.95,2.98,2.94,5.31,6.43,7,10.46,1.69,4.02,2.53,8.37,2.53,13.04,0,1.22-.07,2.4-.22,3.56-.14,1.15-.32,2.26-.54,3.34h12.07v15.09h-20.16c-3.01,3.23-6.59,5.75-10.72,7.55-4.13,1.8-8.53,2.69-13.2,2.69s-8.91-.92-12.93-2.75c-4.02-1.83-7.55-4.33-10.56-7.49h-18.43v-15.09h10.45ZM252.74,105.88c2.15-.86,4.04-2.06,5.66-3.61,1.62-1.55,2.87-3.38,3.78-5.5.89-2.12,1.35-4.43,1.35-6.95s-.43-4.85-1.29-7.01c-.86-2.15-2.08-4.02-3.66-5.61-1.58-1.58-3.45-2.82-5.6-3.72-2.16-.9-4.53-1.35-7.11-1.35s-4.81.47-6.9,1.4c-2.08.93-3.88,2.19-5.39,3.77-1.51,1.58-2.69,3.45-3.56,5.61-.86,2.15-1.29,4.46-1.29,6.9s.43,4.73,1.29,6.85c.86,2.12,2.06,3.95,3.61,5.49,1.55,1.55,3.36,2.77,5.44,3.66,2.08.9,4.35,1.35,6.79,1.35s4.74-.43,6.9-1.29"/><path class="cls-1" d="M298.33,96.93v-50.09l15.09,4.5v5.39h32.88c4.89,0,9.16.63,12.82,1.89,3.66,1.26,6.86,3.32,9.59,6.2,2.3,2.44,3.92,5.55,4.85,9.32.93,3.77,1.4,7.89,1.4,12.34v25.54h-87.19v-15.09h10.56ZM313.41,96.93h46.45v-11.1c0-2.15-.23-4.04-.7-5.66-.47-1.62-1.2-3.04-2.21-4.26-.94-1.22-2.21-2.23-3.83-3.02-1.62-.79-3.4-1.19-5.34-1.19h-34.38v25.22ZM330.07,44.98c-1.76-1.36-2.64-3.38-2.64-6.04,0-2.37.85-4.29,2.53-5.77,1.69-1.47,3.79-2.21,6.31-2.21s4.62.74,6.31,2.21c1.69,1.48,2.53,3.4,2.53,5.77,0,2.66-.88,4.67-2.64,6.04-1.76,1.36-3.82,2.05-6.2,2.05s-4.43-.68-6.2-2.05"/></svg>