<?xml version="1.0" encoding="UTF-8"?><svg xmlns="http://www.w3.org/2000/svg" viewBox="0 0 620.58 704.12"><defs><style>.cls-1{fill:#d8ba82;}.cls-2{opacity:.43;}.cls-2,.cls-3,.cls-4{mix-blend-mode:overlay;}.cls-2,.cls-3,.cls-4,.cls-5,.cls-6{fill:#fff;}.cls-3{opacity:.5;}.cls-4{opacity:.32;}.cls-7,.cls-8{fill:#d1b689;}.cls-9{isolation:isolate;}.cls-5{font-family:Cairo-SemiBold, Cairo;font-size:26px;font-weight:600;}.cls-8{stroke:#fff;stroke-miterlimit:10;stroke-width:.56px;}.cls-10{fill:#05271e;opacity:.25;}.cls-11{fill:#daba82;font-family:Cairo-Bold, Cairo;font-size:33.35px;font-weight:700;}.cls-12{fill:#d2b98c;}</style></defs><g class="cls-9"><g id="Layer_1"><path class="cls-1" d="M66.59,295.08l-30.85-.71-.15-.15L0,258.64V15.62L15.62,0h66.75l37.71,37.71h355.84l24.41,24.41h86.67l33.58,33.57v108.82l-90.55,90.54H162.47l-18.31-18.31h-77.58v18.32ZM162.91,294h366.68l89.92-89.92v-107.94l-32.95-32.95h-86.67l-24.41-24.41H119.64L81.93,1.07H16.06L1.07,16.06v242.13l35.12,35.12,29.33.67v-18.29h79.09l18.31,18.31Z"/><polygon class="cls-10" points="35.96 293.84 .53 258.42 .53 15.84 15.84 .53 82.15 .53 119.87 38.25 475.7 38.25 500.11 62.66 586.79 62.66 620.05 95.92 620.05 204.3 529.81 294.53 162.69 294.53 144.39 276.23 66.05 276.23 66.05 294.53 35.96 293.84"/><path class="cls-3" d="M215.86,251.66H36.47V59.34h179.38v192.32ZM37.54,250.59h177.25V60.4H37.54v190.19Z"/><rect class="cls-4" x="36.34" y="71.75" width="179.64" height="167.49" transform="translate(281.66 29.33) rotate(90)"/><rect class="cls-2" x="46.11" y="69.78" width="160.12" height="171.43"/><text class="cls-5" transform="translate(234.76 130.01)"><tspan x="0" y="0">تطوير حلول مبتكرة لتمكين </tspan><tspan x="0" y="31.2">وتحفيـــــز قــطــــاع التمــويل </tspan><tspan x="0" y="62.4">والتطـــويـر العقـــــاري فــــي </tspan><tspan x="201.71" y="93.6">المملكـــــة.</tspan></text><text class="cls-11" transform="translate(247.44 89.94)"><tspan x="0" y="0">رؤيتنـــــا</tspan></text><g id="business_vision"><path class="cls-6" d="M89.95,168.03l-4.12,2.38c-.39.22-.83.34-1.27.34-.91,0-1.76-.49-2.21-1.27l-1.1-1.91-1.64,1.58,1.08,1.87,5.62,1.67,4.75-2.74-1.1-1.91Z"/><path class="cls-6" d="M91.05,169.93l-4.75,2.74-5.62-1.67-1.08-1.87,1.64-1.58,1.1,1.91c.45.79,1.3,1.27,2.21,1.27.45,0,.88-.12,1.27-.34l4.12-2.38,1.1,1.91Z"/><path class="cls-6" d="M184.35,127.44l-10.96-18.98c-.12-.21-.32-.36-.55-.43-.08-.02-.15-.03-.23-.03-.16,0-.32.04-.46.12l-6.33,3.66c-.21.12-.36.31-.42.55-.06.23-.03.48.09.68l.06.1,1.72,3,7.4,12.81,1.78,3.08c.12.21.32.36.56.42.07.02.14.03.23.03.16,0,.31-.04.45-.12l6.33-3.65c.21-.12.36-.32.43-.55.06-.23.03-.49-.09-.69ZM181.99,127.48c-.06.21-.2.39-.38.5l-3.34,1.92c-.13.08-.27.11-.41.11-.28,0-.56-.15-.71-.41l-9.18-15.92-.05-.09c-.21-.39-.07-.87.31-1.1l3.33-1.93c.13-.07.27-.11.41-.11.07,0,.14.01.21.03.21.06.39.2.5.38l9.23,15.99c.11.19.14.41.08.62Z"/><path class="cls-6" d="M184.35,127.44l-10.96-18.98c-.12-.21-.32-.36-.55-.43-.08-.02-.15-.03-.23-.03-.16,0-.32.04-.46.12l-6.33,3.66c-.21.12-.36.31-.42.55-.06.23-.03.48.09.68l.06.1,1.72,3,7.4,12.81,1.78,3.08c.12.21.32.36.56.42.07.02.14.03.23.03.16,0,.31-.04.45-.12l6.33-3.65c.21-.12.36-.32.43-.55.06-.23.03-.49-.09-.69ZM181.99,127.48c-.06.21-.2.39-.38.5l-3.34,1.92c-.13.08-.27.11-.41.11-.28,0-.56-.15-.71-.41l-9.18-15.92-.05-.09c-.21-.39-.07-.87.31-1.1l3.33-1.93c.13-.07.27-.11.41-.11.07,0,.14.01.21.03.21.06.39.2.5.38l9.23,15.99c.11.19.14.41.08.62Z"/><polygon class="cls-6" points="181.2 127.27 177.87 129.19 168.69 113.29 168.65 113.21 171.97 111.28 181.2 127.27"/><polygon class="cls-6" points="169.76 113.51 171.67 112.4 180.08 126.96 178.17 128.07 169.76 113.51"/><polygon class="cls-12" points="181.2 127.27 177.87 129.19 168.69 113.29 168.65 113.21 171.97 111.28 181.2 127.27"/><polygon class="cls-12" points="169.76 113.51 171.67 112.4 180.08 126.96 178.17 128.07 169.76 113.51"/><path class="cls-12" d="M91.05,169.93l-4.75,2.74-5.62-1.67-1.08-1.87,1.64-1.58,1.1,1.91c.45.79,1.3,1.27,2.21,1.27.45,0,.88-.12,1.27-.34l4.12-2.38,1.1,1.91Z"/><path class="cls-12" d="M91.05,169.93l-4.75,2.74-5.62-1.67-1.08-1.87,1.64-1.58,1.1,1.91c.45.79,1.3,1.27,2.21,1.27.45,0,.88-.12,1.27-.34l4.12-2.38,1.1,1.91Z"/><path class="cls-6" d="M131.32,182.14c-.06-.07-.13-.14-.21-.21.07.06.14.13.21.21Z"/><path class="cls-6" d="M131.32,182.14c-.06-.07-.13-.14-.21-.21.07.06.14.13.21.21Z"/><path class="cls-6" d="M131.32,182.14c-.06-.07-.13-.14-.21-.21.07.06.14.13.21.21Z"/><path class="cls-6" d="M131.32,182.14c-.06-.07-.13-.14-.21-.21.07.06.14.13.21.21Z"/><path class="cls-6" d="M170.64,150.4c0,.5-.4.91-.91.91s-.91-.41-.91-.91.4-.91.91-.91.91.41.91.91Z"/><path class="cls-6" d="M169.73,146.04c-2.41,0-4.37,1.95-4.37,4.37s1.96,4.36,4.37,4.36,4.37-1.95,4.37-4.36-1.96-4.37-4.37-4.37ZM169.73,152.13c-.95,0-1.73-.77-1.73-1.72s.77-1.73,1.73-1.73,1.73.77,1.73,1.73-.78,1.72-1.73,1.72Z"/><path class="cls-6" d="M170.64,150.4c0,.5-.4.91-.91.91s-.91-.41-.91-.91.4-.91.91-.91.91.41.91.91Z"/><path class="cls-6" d="M169.73,146.04c-2.41,0-4.37,1.95-4.37,4.37s1.96,4.36,4.37,4.36,4.37-1.95,4.37-4.36-1.96-4.37-4.37-4.37ZM169.73,152.13c-.95,0-1.73-.77-1.73-1.72s.77-1.73,1.73-1.73,1.73.77,1.73,1.73-.78,1.72-1.73,1.72Z"/><path class="cls-12" d="M170.64,150.4c0,.5-.4.91-.91.91s-.91-.41-.91-.91.4-.91.91-.91.91.41.91.91Z"/><path class="cls-12" d="M170.64,150.4c0,.5-.4.91-.91.91s-.91-.41-.91-.91.4-.91.91-.91.91.41.91.91Z"/><path class="cls-6" d="M158.54,170.28c0,.98-.79,1.78-1.77,1.78s-1.78-.8-1.78-1.78.8-1.77,1.78-1.77,1.77.79,1.77,1.77Z"/><path class="cls-6" d="M156.77,165.05c-2.89,0-5.23,2.35-5.23,5.23s2.35,5.23,5.23,5.23,5.23-2.35,5.23-5.23-2.35-5.23-5.23-5.23ZM156.77,172.87c-1.43,0-2.6-1.16-2.6-2.6s1.16-2.59,2.6-2.59,2.59,1.16,2.59,2.59-1.16,2.6-2.59,2.6Z"/><path class="cls-6" d="M158.54,170.28c0,.98-.79,1.78-1.77,1.78s-1.78-.8-1.78-1.78.8-1.77,1.78-1.77,1.77.79,1.77,1.77Z"/><path class="cls-6" d="M156.77,165.05c-2.89,0-5.23,2.35-5.23,5.23s2.35,5.23,5.23,5.23,5.23-2.35,5.23-5.23-2.35-5.23-5.23-5.23ZM156.77,172.87c-1.43,0-2.6-1.16-2.6-2.6s1.16-2.59,2.6-2.59,2.59,1.16,2.59,2.59-1.16,2.6-2.59,2.6Z"/><path class="cls-12" d="M158.54,170.28c0,.98-.79,1.78-1.77,1.78s-1.78-.8-1.78-1.78.8-1.77,1.78-1.77,1.77.79,1.77,1.77Z"/><path class="cls-12" d="M158.54,170.28c0,.98-.79,1.78-1.77,1.78s-1.78-.8-1.78-1.78.8-1.77,1.78-1.77,1.77.79,1.77,1.77Z"/><circle class="cls-6" cx="102.33" cy="114.11" r="2.64"/><path class="cls-6" d="M102.33,108.01c-3.36,0-6.1,2.74-6.1,6.1s2.74,6.09,6.1,6.09,6.09-2.73,6.09-6.09-2.73-6.1-6.09-6.1ZM102.33,117.56c-1.91,0-3.46-1.55-3.46-3.45s1.55-3.46,3.46-3.46,3.45,1.55,3.45,3.46-1.55,3.45-3.45,3.45Z"/><circle class="cls-6" cx="102.33" cy="114.11" r="2.64"/><path class="cls-6" d="M102.33,108.01c-3.36,0-6.1,2.74-6.1,6.1s2.74,6.09,6.1,6.09,6.09-2.73,6.09-6.09-2.73-6.1-6.09-6.1ZM102.33,117.56c-1.91,0-3.46-1.55-3.46-3.45s1.55-3.46,3.46-3.46,3.45,1.55,3.45,3.46-1.55,3.45-3.45,3.45Z"/><circle class="cls-12" cx="102.33" cy="114.11" r="2.64"/><circle class="cls-12" cx="102.33" cy="114.11" r="2.64"/><path class="cls-6" d="M131.07,183.15c-.12-.14-.18-.32-.18-.51v-12.27c0-.28.14-.54.38-.69l4.74-3c.42-.26.54-.8.29-1.23l-4.49-7.65s-.03-.06-.05-.09l-.02-.05c-.2-.38-.08-.85.29-1.08l.09-.06,42.44-24.5-.91-1.58-50.05,28.91c-.13.08-.27.11-.41.11-.28,0-.56-.15-.71-.41l-.97-1.67-6.44-11.16c-.23-.39-.09-.9.3-1.12l50.07-28.89-.91-1.57-51.56,29.76c-.43.25-.58.81-.34,1.24l.96,1.67c.23.39.09.9-.3,1.12l-11.24,6.49c-.13.08-.28.12-.43.12-.08,0-.17-.01-.25-.04-.23-.08-.4-.24-.49-.46l-1.87-3.24c-.23-.39-.09-.9.3-1.12l4.82-2.79c.43-.25.58-.81.34-1.24-.16-.28-.47-.46-.79-.46-.16,0-.31.04-.45.12l-12.65,7.3c-.43.25-.58.81-.34,1.24.17.28.46.45.79.45.16,0,.32-.04.46-.12l4.83-2.79c.13-.08.27-.11.41-.11.28,0,.56.15.71.41l1.87,3.25c.14.19.19.42.14.65-.05.23-.19.43-.39.54l-9.57,5.53c-.43.25-.58.81-.34,1.23l.05.09c.11.19.14.42.09.63-.05.21-.19.39-.38.5l-3.34,1.93c-.13.07-.27.11-.41.11-.07,0-.14-.01-.21-.03-.21-.06-.39-.2-.5-.38l-1.87-3.24c-.14-.25-.38-.41-.66-.45-.04,0-.09,0-.13,0-.24,0-.46.09-.63.25l-5.41,5.23c-.3.29-.36.75-.16,1.1l2.59,4.49c.12.2.31.35.53.42l7.63,2.26c.09.02.18.03.27.03.16,0,.32-.04.46-.12l6.41-3.7c.13-.07.27-.11.41-.11.07,0,.14.01.21.03.21.06.39.2.5.39l.04.07c.13.21.32.36.57.43.06.02.14.03.23.03.16,0,.31-.04.45-.12l23.8-13.74c.13-.08.27-.11.41-.11.28,0,.56.15.71.41l.97,1.68c.12.21.31.35.56.42.07.02.14.02.23.02.16,0,.32-.04.46-.12l1.42-.82c.13-.08.27-.11.41-.11.23,0,.46.1.62.29.25.3.26.74.01,1.05l-7.29,8.99c-.14.17-.34.28-.56.3-.03,0-.05,0-.08,0-.19,0-.38-.07-.52-.19-.2-.17-.42-.2-.57-.2-.27,0-.51.12-.69.32-.16.19-.23.42-.21.66.02.24.13.46.31.62l1.2,1.01s.03.03.05.05c.02.02.05.05.1.09l1.28,1.09c.16.14.37.21.58.21.27,0,.52-.11.69-.32.16-.19.23-.42.21-.66-.02-.24-.13-.46-.33-.63-.17-.13-.28-.34-.3-.55s.04-.43.18-.6l10.12-12.47c.16-.2.39-.31.64-.31.02,0,.04,0,.06,0,.27.02.51.17.64.4l2.89,4.9c.23.38.1.87-.27,1.11l-4.05,2.56-.08.05c-.08.05-.15.12-.23.21-.01.02-.02.05-.04.06-.03.05-.07.12-.09.17,0,.02-.01.04-.02.06,0,.03-.01.05-.02.08s-.01.05-.02.07v.03s0,.06,0,.09v13.23c0,.19-.06.36-.18.51l-25.56,32.37c-.31.39-.24.97.14,1.27.17.13.36.2.57.2.28,0,.54-.13.72-.35l14.49-18.35c.16-.2.39-.31.64-.31h8.36c.45,0,.82.37.82.82v17.28c0,.5.4.91.9.91s.91-.4.91-.91v-17.28c0-.45.37-.82.82-.82h8.36c.25,0,.49.12.64.31l14.49,18.35c.17.22.43.35.71.35.21,0,.4-.07.56-.19.39-.31.46-.88.16-1.28l-25.56-32.37ZM92.58,170.95l-5.77,3.33c-.13.07-.27.11-.41.11-.08,0-.16-.01-.23-.03l-6.26-1.86c-.2-.06-.38-.2-.48-.38l-1.57-2.71c-.19-.32-.13-.74.14-1l2.85-2.76c.16-.15.36-.23.57-.23.04,0,.08,0,.12.01.25.03.47.18.6.4l1.63,2.82c.16.28.46.46.79.46.16,0,.32-.04.45-.12l4.83-2.79c.13-.07.27-.11.41-.11.07,0,.14.01.21.03.21.06.39.2.5.38l1.92,3.33c.23.39.09.9-.3,1.12ZM118.78,157.92l-22.3,12.87c-.13.07-.27.11-.41.11-.07,0-.14-.01-.21-.03-.21-.06-.39-.2-.5-.38l-3.75-6.49c-.23-.39-.09-.9.3-1.12l22.3-12.87c.13-.07.27-.11.41-.11.07,0,.14.01.21.03.21.06.39.2.5.38l3.75,6.49c.23.39.09.9-.3,1.12ZM129.08,195.34c0,.45-.37.82-.82.82h-5.63c-.31,0-.6-.18-.74-.46-.13-.28-.1-.62.1-.87l5.63-7.13c.16-.2.4-.31.64-.31.09,0,.18.02.27.05.34.12.56.43.56.77v7.13ZM138.08,195.7c-.14.28-.43.46-.74.46h-5.63c-.45,0-.82-.37-.82-.82v-7.13c0-.35.22-.66.55-.77.09-.03.18-.05.27-.05.24,0,.49.11.64.31l5.63,7.13c.2.25.23.58.1.87Z"/><path class="cls-6" d="M131.07,183.15c-.12-.14-.18-.32-.18-.51v-12.27c0-.28.14-.54.38-.69l4.74-3c.42-.26.54-.8.29-1.23l-4.49-7.65s-.03-.06-.05-.09l-.02-.05c-.2-.38-.08-.85.29-1.08l.09-.06,42.44-24.5-.91-1.58-50.05,28.91c-.13.08-.27.11-.41.11-.28,0-.56-.15-.71-.41l-.97-1.67-6.44-11.16c-.23-.39-.09-.9.3-1.12l50.07-28.89-.91-1.57-51.56,29.76c-.43.25-.58.81-.34,1.24l.96,1.67c.23.39.09.9-.3,1.12l-11.24,6.49c-.13.08-.28.12-.43.12-.08,0-.17-.01-.25-.04-.23-.08-.4-.24-.49-.46l-1.87-3.24c-.23-.39-.09-.9.3-1.12l4.82-2.79c.43-.25.58-.81.34-1.24-.16-.28-.47-.46-.79-.46-.16,0-.31.04-.45.12l-12.65,7.3c-.43.25-.58.81-.34,1.24.17.28.46.45.79.45.16,0,.32-.04.46-.12l4.83-2.79c.13-.08.27-.11.41-.11.28,0,.56.15.71.41l1.87,3.25c.14.19.19.42.14.65-.05.23-.19.43-.39.54l-9.57,5.53c-.43.25-.58.81-.34,1.23l.05.09c.11.19.14.42.09.63-.05.21-.19.39-.38.5l-3.34,1.93c-.13.07-.27.11-.41.11-.07,0-.14-.01-.21-.03-.21-.06-.39-.2-.5-.38l-1.87-3.24c-.14-.25-.38-.41-.66-.45-.04,0-.09,0-.13,0-.24,0-.46.09-.63.25l-5.41,5.23c-.3.29-.36.75-.16,1.1l2.59,4.49c.12.2.31.35.53.42l7.63,2.26c.09.02.18.03.27.03.16,0,.32-.04.46-.12l6.41-3.7c.13-.07.27-.11.41-.11.07,0,.14.01.21.03.21.06.39.2.5.39l.04.07c.13.21.32.36.57.43.06.02.14.03.23.03.16,0,.31-.04.45-.12l23.8-13.74c.13-.08.27-.11.41-.11.28,0,.56.15.71.41l.97,1.68c.12.21.31.35.56.42.07.02.14.02.23.02.16,0,.32-.04.46-.12l1.42-.82c.13-.08.27-.11.41-.11.23,0,.46.1.62.29.25.3.26.74.01,1.05l-7.29,8.99c-.14.17-.34.28-.56.3-.03,0-.05,0-.08,0-.19,0-.38-.07-.52-.19-.2-.17-.42-.2-.57-.2-.27,0-.51.12-.69.32-.16.19-.23.42-.21.66.02.24.13.46.31.62l1.2,1.01s.03.03.05.05c.02.02.05.05.1.09l1.28,1.09c.16.14.37.21.58.21.27,0,.52-.11.69-.32.16-.19.23-.42.21-.66-.02-.24-.13-.46-.33-.63-.17-.13-.28-.34-.3-.55s.04-.43.18-.6l10.12-12.47c.16-.2.39-.31.64-.31.02,0,.04,0,.06,0,.27.02.51.17.64.4l2.89,4.9c.23.38.1.87-.27,1.11l-4.05,2.56-.08.05c-.08.05-.15.12-.23.21-.01.02-.02.05-.04.06-.03.05-.07.12-.09.17,0,.02-.01.04-.02.06,0,.03-.01.05-.02.08s-.01.05-.02.07v.03s0,.06,0,.09v13.23c0,.19-.06.36-.18.51l-25.56,32.37c-.31.39-.24.97.14,1.27.17.13.36.2.57.2.28,0,.54-.13.72-.35l14.49-18.35c.16-.2.39-.31.64-.31h8.36c.45,0,.82.37.82.82v17.28c0,.5.4.91.9.91s.91-.4.91-.91v-17.28c0-.45.37-.82.82-.82h8.36c.25,0,.49.12.64.31l14.49,18.35c.17.22.43.35.71.35.21,0,.4-.07.56-.19.39-.31.46-.88.16-1.28l-25.56-32.37ZM92.58,170.95l-5.77,3.33c-.13.07-.27.11-.41.11-.08,0-.16-.01-.23-.03l-6.26-1.86c-.2-.06-.38-.2-.48-.38l-1.57-2.71c-.19-.32-.13-.74.14-1l2.85-2.76c.16-.15.36-.23.57-.23.04,0,.08,0,.12.01.25.03.47.18.6.4l1.63,2.82c.16.28.46.46.79.46.16,0,.32-.04.45-.12l4.83-2.79c.13-.07.27-.11.41-.11.07,0,.14.01.21.03.21.06.39.2.5.38l1.92,3.33c.23.39.09.9-.3,1.12ZM118.78,157.92l-22.3,12.87c-.13.07-.27.11-.41.11-.07,0-.14-.01-.21-.03-.21-.06-.39-.2-.5-.38l-3.75-6.49c-.23-.39-.09-.9.3-1.12l22.3-12.87c.13-.07.27-.11.41-.11.07,0,.14.01.21.03.21.06.39.2.5.38l3.75,6.49c.23.39.09.9-.3,1.12ZM129.08,195.34c0,.45-.37.82-.82.82h-5.63c-.31,0-.6-.18-.74-.46-.13-.28-.1-.62.1-.87l5.63-7.13c.16-.2.4-.31.64-.31.09,0,.18.02.27.05.34.12.56.43.56.77v7.13ZM138.08,195.7c-.14.28-.43.46-.74.46h-5.63c-.45,0-.82-.37-.82-.82v-7.13c0-.35.22-.66.55-.77.09-.03.18-.05.27-.05.24,0,.49.11.64.31l5.63,7.13c.2.25.23.58.1.87Z"/><path class="cls-6" d="M132.54,157.24s-.01.1-.02.14l-.05-.1.08-.05Z"/><path class="cls-6" d="M132.54,157.24s-.01.1-.02.14l-.05-.1.08-.05Z"/></g><path class="cls-1" d="M66.59,704.12l-30.85-.71-.15-.15L0,667.68v-324.75l15.62-15.62h66.75l37.71,37.71h355.84l24.41,24.41h86.67l33.58,33.57v190.56l-90.55,90.54H162.47l-18.31-18.31h-77.58v18.32ZM162.91,703.04h366.68l89.92-89.92v-189.67l-32.95-32.95h-86.67l-24.41-24.41H119.64l-37.71-37.71H16.06l-14.99,14.99v323.87l35.12,35.12,29.33.67v-18.29h79.09l18.31,18.31Z"/><polygon class="cls-10" points="35.96 702.89 .53 667.46 .53 343.16 15.84 327.85 82.15 327.85 119.87 365.56 475.7 365.56 500.11 389.97 586.79 389.97 620.05 423.23 620.05 613.35 529.81 703.58 162.69 703.58 144.39 685.27 66.05 685.27 66.05 703.58 35.96 702.89"/><path class="cls-3" d="M215.86,602.22H36.47v-192.32h179.38v192.32ZM37.54,601.16h177.25v-190.19H37.54v190.19Z"/><rect class="cls-4" x="36.34" y="422.32" width="179.64" height="167.49" transform="translate(632.23 379.9) rotate(90)"/><rect class="cls-2" x="46.11" y="420.35" width="160.12" height="171.43"/><text class="cls-5" transform="translate(234.76 483.05)"><tspan x="0" y="0">تمكين الوصول إلى التمويل </tspan><tspan x="0" y="31.2">العقاري للأفراد والشركات </tspan><tspan x="0" y="62.4">لتحفيز وتعزيز الاستقرار </tspan><tspan x="0" y="93.6">الاقتصادي والاجتماعي من </tspan><tspan x="0" y="124.8">خلال منتجات تدعم إحتياجات </tspan><tspan x="118.95" y="156">الشرائح المستهدفة</tspan></text><text class="cls-11" transform="translate(244.48 442.98)"><tspan x="0" y="0">رسـالتنــا</tspan></text><g id="mission"><path class="cls-7" d="M188.95,573.41c-.48,0-.96-.18-1.32-.55l-75.31-75.31-37.96,41.73c-.7.76-1.88.82-2.64.12-.76-.7-.82-1.88-.12-2.64l39.28-43.18c.34-.38.83-.6,1.34-.61.51-.01,1.01.19,1.37.55l76.7,76.7c.73.73.73,1.92,0,2.65-.37.37-.84.55-1.32.55Z"/><path class="cls-7" d="M188.95,539.74c-.48,0-.96-.18-1.32-.55l-28.31-28.29-13.88,15.26c-.7.76-1.88.82-2.64.13-.76-.7-.82-1.88-.13-2.64l15.2-16.71c.34-.38.83-.6,1.34-.61.51-.01,1.01.19,1.37.55l29.7,29.68c.73.73.73,1.91,0,2.65-.37.37-.84.55-1.32.55Z"/><path class="cls-7" d="M136.57,453.69h-16.75c-1,0-1.88.76-1.94,1.76-.07,1.09.8,1.99,1.87,1.99h13.9c.59,0,1.06.48,1.06,1.06v9.17c0,.55-.45.99-.99.99h-18.44c-.63,0-1.14-.51-1.14-1.14v-11.88c0-1-.76-1.88-1.76-1.94-1.09-.07-1.99.8-1.99,1.87v39.21c0,1,.76,1.88,1.76,1.94,1.09.07,1.99-.8,1.99-1.87v-22.44s0,0,0,0h22.43c1.04,0,1.88-.84,1.88-1.88v-14.95c0-1.04-.84-1.88-1.88-1.88Z"/><path class="cls-8" d="M119.74,457.43h-4.48c-.62,0-1.13.51-1.13,1.13v8.96c0,.62.51,1.13,1.13,1.13h18.32c.62,0,1.13-.51,1.13-1.13v-8.96c0-.62-.51-1.13-1.13-1.13h-13.83Z"/><path class="cls-6" d="M145.93,565.93h-50.51c-6.19,0-11.22-5.03-11.22-11.22,0-5.82,4.06-10.8,10.61-12.99l20.54-7.47c3.84-1.48,4.36-2.12,4.4-3.9.03-1.25-.49-1.84-3.13-4.3-.56-.52-1.2-1.12-1.91-1.8,0,0-.02-.02-.02-.02l-9.36-9.36c-.73-.73-.73-1.91,0-2.64.04-.04.09-.08.13-.12l5.49-5.49c.73-.73,1.92-.73,2.65,0,.73.73.73,1.92,0,2.65l-4.29,4.29,8.02,8.02c.68.65,1.3,1.23,1.85,1.74,2.64,2.45,4.39,4.08,4.32,7.12-.1,4.39-3.01,5.86-6.81,7.32-.01,0-.02,0-.03.01l-20.58,7.48s-.03.01-.05.02c-4.98,1.66-8.07,5.28-8.07,9.45s3.36,7.48,7.48,7.48h50.51c1.03,0,1.87.84,1.87,1.87s-.84,1.87-1.87,1.87Z"/></g><path class="cls-6" d="M114.77,457.78l9.65,5.27,9.62-5.25c.18-.1.11-.36-.09-.36h-19.09c-.19,0-.26.26-.09.35Z"/></g></g></svg>