<?xml version="1.0" encoding="UTF-8"?><svg id="Layer_1" xmlns="http://www.w3.org/2000/svg" viewBox="0 0 693.16 684.46"><defs><style>.cls-1{font-family:Cairo-Regular, Cairo;font-size:26px;}.cls-1,.cls-2{fill:#fff;}.cls-3,.cls-4{fill:#daba82;}.cls-5{fill:#05271e;opacity:.25;}.cls-6{opacity:.75;}.cls-4{font-family:Cairo-Bold, Cairo;font-size:33.35px;font-weight:700;}</style></defs><g class="cls-6"><path class="cls-5" d="M11.55,77.4L63.66,25.28h611v57.6l-52.11,52.11H11.55v-57.6Z"/><path class="cls-2" d="M10.57,135.98v-58.97L63.25,24.33h612.39v58.97l-52.68,52.68H10.57ZM12.53,77.81v56.21h609.61l51.55-51.55V26.26H64.07L12.53,77.81Z"/><path class="cls-2" d="M656.59,0v6.08h-318.89l-7.65,7.68H39.79l-28.25,28.32v19.02L0,72.65v73.92h161.08l11.29,11.29h7.91l-11.29-11.29h4.92l11.29,11.29h7.91l-11.29-11.29h4.92l11.29,11.29h7.91l-11.29-11.29h4.92l11.29,11.29h7.91l-11.29-11.29h4.92l11.29,11.29h7.91l-11.29-11.29h4.92l11.29,11.29h7.91l-11.29-11.29h4.92l11.29,11.29h7.91l-11.29-11.29h4.92l11.29,11.29h7.91l-11.29-11.29h3.63l11.29,11.29h146.26v-6.01h82.71v-5.28h124.69l58.89-58.89v-32.09l6.86-6.86V0h-36.57ZM338.5,8.04h318.09v5.72h-323.81l5.72-5.72ZM684.25,86.86l-57.73,57.73H1.96v-71.16L59.69,15.7h624.56v71.16Z"/><path class="cls-2" d="M22.14,45.07l-1.99-1.95,7.78-7.96,1.99,1.95-7.78,7.96ZM37.69,29.15l-1.99-1.95,7.78-7.96,1.99,1.95-7.78,7.96Z"/><path class="cls-2" d="M408.55,153.09h-11.13v-2.78h11.13v2.78ZM386.29,153.09h-11.13v-2.78h11.13v2.78ZM364.03,153.09h-11.13v-2.78h11.13v2.78ZM341.78,153.09h-11.13v-2.78h11.13v2.78ZM319.52,153.09h-11.13v-2.78h11.13v2.78ZM297.26,153.09h-11.13v-2.78h11.13v2.78Z"/></g><text class="cls-4" transform="translate(79.49 70.54)"><tspan x="0" y="0">تأسَســت الشـركة السعوديـة لخدمـات</tspan><tspan x="-14.97" y="42">الضمان الإسكانـي العقاريـة “ضمانات”</tspan></text><g class="cls-6"><path class="cls-5" d="M54.14,670.42l-32.52-32.54V249.47h131.76l45.07-45.07h477.08v428.07l-37.91,37.95H54.14Z"/><path class="cls-3" d="M637.95,671.21H53.82l-32.98-32.98V248.66h132.22l45.07-45.07h478.19v429.2l-38.39,38.39.02.02ZM54.47,669.64h582.83l37.45-37.47V205.18H198.78l-45.07,45.07H22.41v387.31l32.06,32.06v.02Z"/><path class="cls-3" d="M684.28,562.27v73.46l-.08.08V195.73h-20.05l-8.99-8.99h-178.51l-8.99,8.99H194.86l-29.1,29.1H58.5l-15.97,15.97H12.98v14.52h-6.85v354.63H1.96v11.32l11.04,11.04v9.16l37.59,37.59h498.62v5.39h99.34l43.81-43.81v-70.32l-8.07-8.07ZM12.96,609.96h-5.28v-353.07h5.28v353.07ZM59.15,226.4h105.06l-2.89,2.89h-7.94l-11.52,11.52h-4.97l11.52-11.52h-8l-11.52,11.52h-4.97l11.52-11.52h-8l-11.52,11.52h-4.97l11.52-11.52h-8l-11.52,11.52h-4.97l11.52-11.52h-8l-11.52,11.52h-4.97l11.52-11.52h-8l-11.52,11.52h-4.97l11.52-11.52h-8l-11.52,11.52h-4.97l11.52-11.52h-8l-11.52,11.52h-6.29l14.4-14.4h-.04ZM682.61,635.42l-42.06,42.08H51.2l-36.67-36.67V242.37h28.46l.1.1.1-.1h107.28l45.07-45.07h487.09v438.11Z"/><path class="cls-3" d="M652.79,192.77h-7.94v-2.05h7.94v2.05ZM636.66,192.77h-8.2v-2.05h8.2v2.05ZM620.27,192.77h-8.2v-2.05h8.2v2.05ZM603.87,192.77h-8.2v-2.05h8.2v2.05ZM587.48,192.77h-8.2v-2.05h8.2v2.05ZM571.09,192.77h-8.2v-2.05h8.2v2.05ZM554.7,192.77h-8.2v-2.05h8.2v2.05ZM538.3,192.77h-8.2v-2.05h8.2v2.05ZM521.91,192.77h-8.2v-2.05h8.2v2.05ZM505.52,192.77h-8.2v-2.05h8.2v2.05ZM489.13,192.77h-8.2v-2.05h8.2v2.05Z"/><path class="cls-3" d="M640.36,681.14h-8.2v-2.05h8.2v2.05ZM623.96,681.14h-8.2v-2.05h8.2v2.05ZM607.57,681.14h-8.2v-2.05h8.2v2.05ZM591.18,681.14h-8.2v-2.05h8.2v2.05ZM574.79,681.14h-8.2v-2.05h8.2v2.05ZM558.39,681.14h-4.29v-2.05h4.29v2.05ZM648.45,678.85l-1.46-1.44,5.77-5.82,1.46,1.44-5.77,5.82ZM659.99,667.2l-1.46-1.44,5.77-5.82,1.46,1.44-5.77,5.82ZM671.53,655.56l-1.46-1.44,5.77-5.82,1.46,1.44-5.77,5.82ZM683.07,643.92l-1.46-1.44,5.64-5.69.64.64,1.11-.1v.6l-5.94,5.99ZM689.01,629.13h-2.05v-8.2h2.05v8.2ZM689.01,612.74h-2.05v-8.2h2.05v8.2ZM689.01,596.35h-2.05v-8.2h2.05v8.2ZM689.01,579.96h-2.05v-8.2h2.05v8.2Z"/></g><text class="cls-1" transform="translate(48.65 289.52)"><tspan x="0" y="0">كشركة مساهمة مقفلة تعمل في مجال ضمانات </tspan><tspan x="258.34" y="31.2">التمويل العقاري، برأس مال </tspan><tspan x="0" y="62.4">الشركة الأولى من نوعها في الشرق الأوسط </tspan><tspan x="0" y="93.6">والمملوكة بالكامل لصندوق التنمية العقارية تحت </tspan><tspan x="0" y="124.8">إشراف ورقابة هيئة التأمين، ويقع مقرها الرئيسي </tspan><tspan x="410.31" y="156">في مدينة الرياض.</tspan><tspan x="0" y="218.4">وتسعى الشركة إلى المساهمة في تحقيق </tspan><tspan x="306.06" y="249.6">مُستهدفات رؤية المملكة </tspan><tspan x="0" y="280.8">منظومة الإسكان بهدف رفع نسبة تملُك الأسر </tspan><tspan x="313.56" y="312">السعودية للمساكن إلى </tspan><tspan x="276.02" y="343.2">للتمويل العقاري في المملكة.</tspan></text></svg>