<?xml version="1.0" encoding="UTF-8"?><svg xmlns="http://www.w3.org/2000/svg" viewBox="0 0 419.58 382.24"><defs><style>.cls-1{fill:#d8ba82;}.cls-2{fill:#e3ce9b;}.cls-3,.cls-4,.cls-5{mix-blend-mode:overlay;}.cls-3,.cls-4,.cls-5,.cls-6,.cls-7{fill:#fff;}.cls-3,.cls-6{opacity:.43;}.cls-4{opacity:.5;}.cls-5{opacity:.32;}.cls-8{isolation:isolate;}.cls-9{fill:#05271e;opacity:.25;}.cls-10{font-size:34.56px;}.cls-10,.cls-11{fill:#025e56;}.cls-10,.cls-12{font-family:Cairo-ExtraBold, 'Cairo ExtraBold';font-weight:700;}.cls-7{font-family:Cairo-SemiBold, Cairo;font-size:13.8px;font-weight:600;}.cls-12{fill:#daba82;font-size:17.7px;}</style></defs><g class="cls-8"><g id="Layer_1"><path class="cls-1" d="M35.33,156.57l-16.37-.37-.08-.08L0,137.23V8.29L8.29,0h35.42l20.01,20.01h188.81l12.95,12.95h136.28l17.82,17.81v57.74l-48.04,48.04H86.21l-9.71-9.71h-41.16v9.72ZM86.44,156h284.86l47.71-47.71v-57.27l-17.48-17.48h-136.28l-12.95-12.95H63.48L43.47.57H8.52L.57,8.52v128.48l18.63,18.63,15.56.36v-9.71h41.96l9.71,9.71Z"/><polygon class="cls-9" points="19.08 155.91 .28 137.12 .28 8.41 8.4 .28 43.59 .28 63.6 20.29 252.41 20.29 265.36 33.25 401.64 33.25 419.29 50.89 419.29 108.4 371.42 156.28 86.33 156.28 76.61 146.57 35.05 146.57 35.05 156.28 19.08 155.91"/><path class="cls-4" d="M114.53,133.53H19.35V31.49h95.18v102.04ZM19.92,132.96h94.05V32.05H19.92v100.91Z"/><rect class="cls-5" x="19.28" y="38.07" width="95.32" height="88.87" transform="translate(149.45 15.56) rotate(90)"/><rect class="cls-6" x="24.46" y="37.03" width="84.96" height="90.96"/><text class="cls-12" transform="translate(124.63 47.72)"><tspan x="0" y="0">طــوّر</tspan></text><path class="cls-11" d="M43.03,75.47v11.6c0,4.64-1.88,8.84-4.92,11.87l-.07.07-4.92-4.92.07-.07c1.79-1.79,2.88-4.24,2.88-6.96v-9.28l6.96-2.32h0Z"/><path class="cls-11" d="M57.52,75.47c-5.26,0-9.72,3.43-11.3,8.16-.19.6-.3,1.62-.3,2.27v5.8h10.44c-.46.86-1.04,1.65-1.72,2.32l-.07.07,4.92,4.92.07-.07c1.99-1.99,3.48-4.45,4.27-7.24h.65v-16.24h-6.96ZM57.52,84.75h-4.18c.86-1.95,2.41-2.32,4.18-2.32v2.32Z"/><path class="cls-11" d="M81.21,78.3h-.07s-2.89.47-2.89.47v-10.25l-.82.27-6.14,2.05v13.91h-6.94v6.96h34.71v-16.23l-17.85,2.82ZM94.26,86.87h-14.65v-4.38l14.65-1.62v5.99Z"/><polygon class="cls-2" points="78.39 68.47 78.24 68.52 78.24 68.57 78.24 78.77 82.72 78.06 82.54 69.15 78.39 68.47"/><path class="cls-2" d="M60.4,69.11l1.92-.63v1.92c0,1.87-1.37,2.81-2.76,2.87-.73.02-1.46-.2-2.02-.66-.56.46-1.29.68-2.02.66-1.41-.03-2.78-1-2.78-2.87v-.64l1.92-.64v1.29c0,1.27,1.92,1.27,1.92-.02v-1.27l1.92-.64v1.92c0,1.27,1.92,1.27,1.92,0v-1.27Z"/><text class="cls-7" transform="translate(124.57 68.98)"><tspan x="0" y="0">هو منتج ضمان تمويل المطورين </tspan><tspan x="0" y="16.55">العقاريين ويعد أحد الممكنات الرئيسية و </tspan><tspan x="0" y="33.11">الهامة لدعم المطورين العقاريين لزيادة </tspan><tspan x="0" y="49.66">المعروض من الوحدات السكنية </tspan><tspan x="106.56" y="66.22">بضمانات تمويلية مبتكرة </tspan></text><path class="cls-1" d="M35.33,382.24l-16.37-.37-.08-.08L0,362.9v-163.37l8.29-8.29h35.42l20.01,20.01h188.81l12.95,12.95h136.28l17.82,17.81v92.17l-48.04,48.04H86.21l-9.71-9.71h-41.16v9.72ZM86.44,381.66h284.86l47.71-47.71v-91.7l-17.48-17.48h-136.28l-12.95-12.95H63.48l-20.01-20.01H8.52l-7.96,7.96v162.9l18.63,18.63,15.56.36v-9.71h41.96l9.71,9.71Z"/><polygon class="cls-9" points="19.08 381.58 .28 362.78 .28 199.65 8.4 191.53 43.59 191.53 63.6 211.54 252.41 211.54 265.36 224.49 401.64 224.49 419.29 242.14 419.29 334.07 371.42 381.95 86.33 381.95 76.61 372.23 35.05 372.23 35.05 381.95 19.08 381.58"/><path class="cls-4" d="M114.53,347.28H19.35v-102.04h95.18v102.04ZM19.92,346.72h94.05v-100.91H19.92v100.91Z"/><rect class="cls-5" x="19.28" y="251.82" width="95.32" height="88.87" transform="translate(363.2 229.32) rotate(90)"/><rect class="cls-3" x="24.46" y="250.78" width="84.96" height="90.96"/><text class="cls-7" transform="translate(124.57 260.23)"><tspan x="0" y="0">منتج يحفز الممولين على تمويل الشرائح </tspan><tspan x="0" y="16.55">غير المستهدفة بنكيًا، وذلك من خلال </tspan><tspan x="0" y="33.11">مشاركة المخاطر الائتمانية مع الممول </tspan><tspan x="0" y="49.66">من خلال ضمانات التمويل العقاري. </tspan><tspan x="0" y="66.22">وبالتالي يمكّن المواطن من الحصول </tspan><tspan x="0" y="82.77">على المسكن الأول بتكلفة اقتراض </tspan><tspan x="191.99" y="99.33" xml:space="preserve">منخفضة.  </tspan></text><text class="cls-12" transform="translate(127.6 238.97)"><tspan x="0" y="0">MGS</tspan></text><text class="cls-10" transform="translate(34.07 308.02)"><tspan x="0" y="0">MGS</tspan></text></g></g></svg>