<?xml version="1.0" encoding="UTF-8"?><svg id="Layer_1" xmlns="http://www.w3.org/2000/svg" viewBox="0 0 550.16 12.37"><defs><style>.cls-1{fill:#fff;}.cls-2{fill:#d2b98c;}</style></defs><path class="cls-1" d="M89.51,12.09h-4.89c-1.51,0-2.74-1.23-2.74-2.74v-4.89c0-1.51,1.23-2.74,2.74-2.74h4.89c1.51,0,2.74,1.23,2.74,2.74v4.89c0,1.51-1.23,2.74-2.74,2.74ZM84.62,2.59c-1.03,0-1.87.84-1.87,1.87v4.89c0,1.03.84,1.87,1.87,1.87h4.89c1.03,0,1.87-.84,1.87-1.87v-4.89c0-1.03-.84-1.87-1.87-1.87h-4.89Z"/><rect class="cls-2" y="2.34" width="3.01" height="10.04"/><rect class="cls-2" x="64.86" y="2.34" width="2.85" height="10.04"/><path class="cls-1" d="M6.52,10.1v-5.37h1.96c.4,0,.73.06,1,.19.27.12.48.3.64.53s.27.5.33.82c.06.32.1.67.1,1.06s-.03.76-.09,1.1c-.06.34-.17.63-.33.88s-.37.45-.63.58c-.27.14-.6.21-1.01.21h-1.96ZM7.27,9.45h1.2c.27,0,.49-.06.66-.17s.3-.27.39-.47c.09-.2.16-.42.19-.67s.05-.52.05-.81-.02-.54-.05-.78-.1-.44-.19-.62c-.09-.18-.22-.31-.39-.41s-.39-.14-.66-.14h-1.2v4.07Z"/><path class="cls-1" d="M12.36,10.17c-.37,0-.65-.1-.84-.3-.19-.2-.29-.5-.29-.9,0-.27.05-.48.14-.64.09-.16.23-.29.42-.37.18-.08.41-.13.69-.15l1.13-.11v-.3c0-.24-.05-.42-.16-.52-.11-.1-.27-.15-.49-.15-.14,0-.29,0-.48.02-.18.01-.36.02-.54.04-.18.02-.34.03-.48.05l-.03-.53c.13-.03.28-.06.46-.09.18-.03.37-.05.57-.07.2-.02.38-.03.55-.03.31,0,.56.04.76.13.2.09.34.23.44.41s.14.43.14.72v1.92c.01.1.05.18.13.23.08.05.17.08.28.1l-.02.54c-.11,0-.22,0-.32-.01-.1,0-.19-.02-.28-.05-.08-.02-.16-.05-.22-.09-.07-.04-.13-.08-.18-.14-.09.04-.22.09-.37.13-.15.05-.31.09-.48.12-.17.03-.34.05-.51.05ZM12.51,9.6c.13,0,.26-.01.4-.04.14-.03.27-.06.39-.09.12-.03.23-.06.3-.09v-1.17l-1.04.1c-.22.02-.37.08-.47.18-.09.11-.14.26-.14.46s.05.36.14.48.23.17.41.17Z"/><path class="cls-1" d="M15.42,10.1v-3.91h.73v.27c.12-.07.28-.15.49-.23.21-.08.41-.12.61-.12.25,0,.46.03.62.09s.28.16.38.3c.1-.06.22-.12.37-.18.15-.06.31-.11.48-.16.17-.04.34-.06.51-.06.36,0,.64.06.83.19.19.12.33.33.4.61.07.28.11.66.11,1.13v2.06h-.72v-2.01c0-.32-.02-.58-.05-.77-.04-.19-.11-.33-.21-.42-.11-.09-.27-.13-.49-.13-.19,0-.38.03-.57.09s-.33.11-.43.17c.04.12.06.28.07.48.01.19.02.39.02.6v2h-.72v-1.99c0-.33-.02-.6-.05-.79s-.11-.34-.21-.42c-.11-.09-.27-.13-.48-.13-.18,0-.36.03-.54.09-.18.06-.32.11-.41.17v3.08h-.73Z"/><path class="cls-1" d="M22.86,10.17c-.37,0-.65-.1-.84-.3-.19-.2-.29-.5-.29-.9,0-.27.05-.48.14-.64.09-.16.23-.29.42-.37.18-.08.41-.13.69-.15l1.13-.11v-.3c0-.24-.05-.42-.16-.52-.11-.1-.27-.15-.49-.15-.14,0-.29,0-.48.02-.18.01-.36.02-.54.04-.18.02-.34.03-.48.05l-.03-.53c.13-.03.28-.06.46-.09.18-.03.37-.05.57-.07.2-.02.38-.03.55-.03.31,0,.56.04.76.13.2.09.34.23.44.41s.14.43.14.72v1.92c.01.1.05.18.13.23.08.05.17.08.28.1l-.02.54c-.11,0-.22,0-.32-.01-.1,0-.19-.02-.28-.05-.08-.02-.16-.05-.22-.09-.07-.04-.13-.08-.18-.14-.09.04-.22.09-.37.13-.15.05-.31.09-.48.12-.17.03-.34.05-.51.05ZM23.01,9.6c.13,0,.26-.01.4-.04.14-.03.27-.06.39-.09.12-.03.23-.06.3-.09v-1.17l-1.04.1c-.22.02-.37.08-.47.18-.09.11-.14.26-.14.46s.05.36.14.48.23.17.41.17Z"/><path class="cls-1" d="M25.92,10.1v-3.91h.73v.27c.08-.05.19-.1.32-.16.13-.05.27-.1.41-.14.15-.04.29-.06.42-.06.36,0,.64.06.83.19.19.13.33.33.4.62.08.28.11.66.11,1.12v2.06h-.73v-2.02c0-.32-.02-.58-.05-.77-.04-.19-.11-.33-.22-.42-.11-.09-.27-.13-.49-.13-.12,0-.24.01-.37.04-.13.03-.25.06-.36.1-.11.04-.2.08-.28.12v3.08h-.73Z"/><path class="cls-1" d="M31.04,10.17c-.37,0-.65-.1-.84-.3-.19-.2-.29-.5-.29-.9,0-.27.05-.48.14-.64.09-.16.23-.29.42-.37.18-.08.41-.13.69-.15l1.13-.11v-.3c0-.24-.05-.42-.16-.52-.11-.1-.27-.15-.49-.15-.14,0-.29,0-.48.02-.18.01-.36.02-.54.04-.18.02-.34.03-.48.05l-.03-.53c.13-.03.28-.06.46-.09.18-.03.37-.05.57-.07.2-.02.38-.03.55-.03.31,0,.56.04.76.13.2.09.34.23.44.41s.14.43.14.72v1.92c.01.1.05.18.13.23.08.05.17.08.28.1l-.02.54c-.11,0-.22,0-.32-.01-.1,0-.19-.02-.28-.05-.08-.02-.16-.05-.22-.09-.07-.04-.13-.08-.18-.14-.09.04-.22.09-.37.13-.15.05-.31.09-.48.12-.17.03-.34.05-.51.05ZM31.19,9.6c.13,0,.26-.01.4-.04.14-.03.27-.06.39-.09.12-.03.23-.06.3-.09v-1.17l-1.04.1c-.22.02-.37.08-.47.18-.09.11-.14.26-.14.46s.05.36.14.48.23.17.41.17Z"/><path class="cls-1" d="M35.37,10.18c-.28,0-.49-.04-.66-.12s-.28-.23-.35-.43-.11-.49-.11-.87v-1.95h-.53v-.62h.53v-1.15h.72v1.15h1.16v.62h-1.16v1.75c0,.25.01.45.03.6.02.14.07.24.14.3.07.06.19.09.34.09.05,0,.12,0,.19,0s.16,0,.24-.02c.08,0,.16-.01.22-.02l.04.59c-.12.02-.26.04-.42.06-.16.02-.29.03-.4.03Z"/><path class="cls-1" d="M36.78,10.1v-.98h.78v.98h-.78Z"/><path class="cls-1" d="M40.06,10.17c-.42,0-.75-.07-.99-.21-.24-.14-.41-.36-.51-.67-.1-.31-.15-.71-.15-1.21s.05-.87.16-1.16c.11-.29.29-.5.53-.63.24-.13.56-.19.96-.19.09,0,.21,0,.34.02.13.01.27.03.41.05.14.02.26.04.35.05l-.02.59c-.09-.01-.19-.02-.31-.03-.12-.01-.23-.02-.34-.03-.11,0-.2-.01-.27-.01-.28,0-.5.04-.65.13-.15.09-.26.23-.32.42s-.09.45-.09.78c0,.35.03.64.08.85.05.21.16.36.31.45.15.09.37.14.67.14.07,0,.16,0,.28-.01.11,0,.23-.02.35-.03.12-.01.23-.02.32-.02l.02.59c-.1.02-.22.03-.36.05-.14.02-.27.03-.41.05-.14.01-.25.02-.35.02Z"/><path class="cls-1" d="M43.51,10.17c-.44,0-.78-.07-1.03-.22-.25-.15-.43-.38-.53-.68-.1-.31-.16-.7-.16-1.17s.06-.82.17-1.11c.11-.29.29-.51.55-.65.25-.15.59-.22,1-.22s.76.07,1.01.22c.25.15.43.36.54.65.11.29.17.66.17,1.11s-.05.86-.15,1.17-.28.53-.53.68c-.25.15-.6.22-1.04.22ZM43.51,9.56c.28,0,.48-.05.62-.15s.23-.26.28-.47c.05-.22.07-.5.07-.84s-.03-.61-.09-.81-.16-.34-.3-.43c-.14-.09-.34-.13-.59-.13s-.45.04-.59.13c-.14.09-.24.23-.3.43s-.09.47-.09.81.02.62.07.84c.05.22.14.37.28.47s.35.15.63.15Z"/><path class="cls-1" d="M46.11,10.1v-3.91h.73v.27c.12-.07.28-.15.49-.23.21-.08.41-.12.61-.12.25,0,.46.03.62.09s.28.16.38.3c.1-.06.22-.12.37-.18.15-.06.31-.11.48-.16.17-.04.34-.06.51-.06.36,0,.64.06.83.19.19.12.33.33.4.61.07.28.11.66.11,1.13v2.06h-.72v-2.01c0-.32-.02-.58-.05-.77-.04-.19-.11-.33-.21-.42-.11-.09-.27-.13-.49-.13-.19,0-.38.03-.57.09s-.33.11-.43.17c.04.12.06.28.07.48.01.19.02.39.02.6v2h-.72v-1.99c0-.33-.02-.6-.05-.79s-.11-.34-.21-.42c-.11-.09-.27-.13-.48-.13-.18,0-.36.03-.54.09-.18.06-.32.11-.41.17v3.08h-.73Z"/><path class="cls-1" d="M52.62,10.1v-.98h.78v.98h-.78Z"/><path class="cls-1" d="M55.68,10.17c-.14,0-.29,0-.46-.02s-.35-.04-.51-.06-.32-.05-.44-.07l.03-.58c.13.02.28.03.44.05s.33.04.49.05c.16.01.28.02.38.02.2,0,.36-.02.49-.05.13-.04.23-.1.3-.18.07-.09.1-.2.1-.35,0-.12-.03-.21-.08-.28-.05-.06-.15-.12-.29-.16s-.35-.09-.62-.13c-.29-.05-.53-.11-.72-.18-.19-.07-.34-.18-.43-.32-.09-.15-.14-.35-.14-.61,0-.3.07-.54.21-.71.14-.17.32-.29.54-.36.22-.07.45-.11.7-.11.16,0,.32,0,.5.02.18.02.35.04.52.06.17.03.31.05.43.07l-.02.59c-.12-.02-.27-.04-.44-.06-.17-.02-.33-.03-.5-.04-.17-.01-.31-.02-.44-.02-.15,0-.28.01-.39.04-.12.03-.21.08-.27.16s-.1.18-.1.32c0,.1.02.19.07.25.05.06.14.12.28.16.14.04.34.09.6.13.32.05.58.12.77.19.19.08.33.19.42.34.09.15.13.35.13.6,0,.46-.14.78-.41.97-.27.18-.65.27-1.13.27Z"/><path class="cls-1" d="M58.95,10.17c-.37,0-.65-.1-.84-.3-.19-.2-.29-.5-.29-.9,0-.27.05-.48.14-.64.09-.16.23-.29.42-.37.18-.08.41-.13.69-.15l1.13-.11v-.3c0-.24-.05-.42-.16-.52-.11-.1-.27-.15-.49-.15-.14,0-.29,0-.48.02-.18.01-.36.02-.54.04-.18.02-.34.03-.48.05l-.03-.53c.13-.03.28-.06.46-.09.18-.03.37-.05.57-.07.2-.02.38-.03.55-.03.31,0,.56.04.76.13.2.09.34.23.44.41s.14.43.14.72v1.92c.01.1.05.18.13.23.08.05.17.08.28.1l-.02.54c-.11,0-.22,0-.32-.01-.1,0-.19-.02-.28-.05-.08-.02-.16-.05-.22-.09-.07-.04-.13-.08-.18-.14-.09.04-.22.09-.37.13-.15.05-.31.09-.48.12-.17.03-.34.05-.51.05ZM59.1,9.6c.13,0,.26-.01.4-.04.14-.03.27-.06.39-.09.12-.03.23-.06.3-.09v-1.17l-1.04.1c-.22.02-.37.08-.47.18-.09.11-.14.26-.14.46s.05.36.14.48.23.17.41.17Z"/><path class="cls-1" d="M99.36,4.56v4.56c0,.34,0,.72.03.97h-.62l-.03-.65h-.02c-.21.42-.67.74-1.29.74-.91,0-1.61-.77-1.61-1.92,0-1.26.77-2.03,1.69-2.03.58,0,.97.27,1.14.58h.02v-2.25h.69ZM98.68,7.86c0-.09,0-.2-.03-.29-.1-.44-.48-.8-.99-.8-.71,0-1.13.62-1.13,1.46,0,.76.37,1.4,1.12,1.4.46,0,.88-.3,1.01-.82.02-.09.03-.19.03-.3v-.66Z"/><path class="cls-1" d="M101.35,10.17c-.37,0-.65-.1-.84-.3-.19-.2-.29-.5-.29-.9,0-.27.05-.48.14-.64.09-.16.23-.29.42-.37.18-.08.41-.13.69-.15l1.13-.11v-.3c0-.24-.05-.42-.16-.52-.11-.1-.27-.15-.49-.15-.14,0-.29,0-.48.02-.18.01-.36.02-.54.04-.18.02-.34.03-.48.05l-.03-.53c.13-.03.28-.06.46-.09.18-.03.37-.05.57-.07.2-.02.38-.03.55-.03.31,0,.56.04.76.13.2.09.34.23.44.41s.14.43.14.72v1.92c.01.1.05.18.13.23.08.05.17.08.28.1l-.02.54c-.11,0-.22,0-.32-.01-.1,0-.19-.02-.28-.05-.08-.02-.16-.05-.22-.09-.07-.04-.13-.08-.18-.14-.09.04-.22.09-.37.13-.15.05-.31.09-.48.12-.17.03-.34.05-.51.05ZM101.5,9.6c.13,0,.26-.01.4-.04.14-.03.27-.06.39-.09.12-.03.23-.06.3-.09v-1.17l-1.04.1c-.22.02-.37.08-.47.18-.09.11-.14.26-.14.46s.05.36.14.48.23.17.41.17Z"/><path class="cls-1" d="M104.41,10.1v-3.91h.73v.27c.12-.07.28-.15.49-.23.21-.08.41-.12.61-.12.25,0,.46.03.62.09s.28.16.38.3c.1-.06.22-.12.37-.18.15-.06.31-.11.48-.16.17-.04.34-.06.51-.06.36,0,.64.06.83.19.19.12.33.33.4.61.07.28.11.66.11,1.13v2.06h-.72v-2.01c0-.32-.02-.58-.05-.77-.04-.19-.11-.33-.21-.42-.11-.09-.27-.13-.49-.13-.19,0-.38.03-.57.09s-.33.11-.43.17c.04.12.06.28.07.48.01.19.02.39.02.6v2h-.72v-1.99c0-.33-.02-.6-.05-.79s-.11-.34-.21-.42c-.11-.09-.27-.13-.48-.13-.18,0-.36.03-.54.09-.18.06-.32.11-.41.17v3.08h-.73Z"/><path class="cls-1" d="M111.85,10.17c-.37,0-.65-.1-.84-.3-.19-.2-.29-.5-.29-.9,0-.27.05-.48.14-.64.09-.16.23-.29.42-.37.18-.08.41-.13.69-.15l1.13-.11v-.3c0-.24-.05-.42-.16-.52-.11-.1-.27-.15-.49-.15-.14,0-.29,0-.48.02-.18.01-.36.02-.54.04-.18.02-.34.03-.48.05l-.03-.53c.13-.03.28-.06.46-.09.18-.03.37-.05.57-.07.2-.02.38-.03.55-.03.31,0,.56.04.76.13.2.09.34.23.44.41s.14.43.14.72v1.92c.01.1.05.18.13.23.08.05.17.08.28.1l-.02.54c-.11,0-.22,0-.32-.01-.1,0-.19-.02-.28-.05-.08-.02-.16-.05-.22-.09-.07-.04-.13-.08-.18-.14-.09.04-.22.09-.37.13-.15.05-.31.09-.48.12-.17.03-.34.05-.51.05ZM112,9.6c.13,0,.26-.01.4-.04.14-.03.27-.06.39-.09.12-.03.23-.06.3-.09v-1.17l-1.04.1c-.22.02-.37.08-.47.18-.09.11-.14.26-.14.46s.05.36.14.48.23.17.41.17Z"/><path class="cls-1" d="M114.91,10.1v-3.91h.73v.27c.08-.05.19-.1.32-.16.13-.05.27-.1.41-.14.15-.04.29-.06.42-.06.36,0,.64.06.83.19.19.13.33.33.4.62.08.28.11.66.11,1.12v2.06h-.73v-2.02c0-.32-.02-.58-.05-.77-.04-.19-.11-.33-.22-.42-.11-.09-.27-.13-.49-.13-.12,0-.24.01-.37.04-.13.03-.25.06-.36.1-.11.04-.2.08-.28.12v3.08h-.73Z"/><path class="cls-1" d="M120.03,10.17c-.37,0-.65-.1-.84-.3-.19-.2-.29-.5-.29-.9,0-.27.05-.48.14-.64.09-.16.23-.29.42-.37.18-.08.41-.13.69-.15l1.13-.11v-.3c0-.24-.05-.42-.16-.52-.11-.1-.27-.15-.49-.15-.14,0-.29,0-.48.02-.18.01-.36.02-.54.04-.18.02-.34.03-.48.05l-.03-.53c.13-.03.28-.06.46-.09.18-.03.37-.05.57-.07.2-.02.38-.03.55-.03.31,0,.56.04.76.13.2.09.34.23.44.41s.14.43.14.72v1.92c.01.1.05.18.13.23.08.05.17.08.28.1l-.02.54c-.11,0-.22,0-.32-.01-.1,0-.19-.02-.28-.05-.08-.02-.16-.05-.22-.09-.07-.04-.13-.08-.18-.14-.09.04-.22.09-.37.13-.15.05-.31.09-.48.12-.17.03-.34.05-.51.05ZM120.18,9.6c.13,0,.26-.01.4-.04.14-.03.27-.06.39-.09.12-.03.23-.06.3-.09v-1.17l-1.04.1c-.22.02-.37.08-.47.18-.09.11-.14.26-.14.46s.05.36.14.48.23.17.41.17Z"/><path class="cls-1" d="M124.36,10.18c-.28,0-.49-.04-.66-.12s-.28-.23-.35-.43-.11-.49-.11-.87v-1.95h-.53v-.62h.53v-1.15h.72v1.15h1.16v.62h-1.16v1.75c0,.25.01.45.03.6.02.14.07.24.14.3.07.06.19.09.34.09.05,0,.12,0,.19,0s.16,0,.24-.02c.08,0,.16-.01.22-.02l.04.59c-.12.02-.26.04-.42.06-.16.02-.29.03-.4.03Z"/><path class="cls-1" d="M125.8,10.1v-5.57h.73v3.23l.56-.02,1.01-1.54h.8l-1.18,1.82,1.24,2.09h-.8l-1.05-1.72-.58.02v1.7h-.73Z"/><path class="cls-1" d="M130.84,10.17c-.14,0-.29,0-.46-.02s-.35-.04-.51-.06-.32-.05-.44-.07l.03-.58c.13.02.28.03.44.05s.33.04.49.05c.16.01.28.02.38.02.2,0,.36-.02.49-.05.13-.04.23-.1.3-.18.07-.09.1-.2.1-.35,0-.12-.03-.21-.08-.28-.05-.06-.15-.12-.29-.16s-.35-.09-.62-.13c-.29-.05-.53-.11-.72-.18-.19-.07-.34-.18-.43-.32-.09-.15-.14-.35-.14-.61,0-.3.07-.54.21-.71.14-.17.32-.29.54-.36.22-.07.45-.11.7-.11.16,0,.32,0,.5.02.18.02.35.04.52.06.17.03.31.05.43.07l-.02.59c-.12-.02-.27-.04-.44-.06-.17-.02-.33-.03-.5-.04-.17-.01-.31-.02-.44-.02-.15,0-.28.01-.39.04-.12.03-.21.08-.27.16s-.1.18-.1.32c0,.1.02.19.07.25.05.06.14.12.28.16.14.04.34.09.6.13.32.05.58.12.77.19.19.08.33.19.42.34.09.15.13.35.13.6,0,.46-.14.78-.41.97-.27.18-.65.27-1.13.27Z"/><path class="cls-1" d="M134.11,10.17c-.37,0-.65-.1-.84-.3-.19-.2-.29-.5-.29-.9,0-.27.05-.48.14-.64.09-.16.23-.29.42-.37.18-.08.41-.13.69-.15l1.13-.11v-.3c0-.24-.05-.42-.16-.52-.11-.1-.27-.15-.49-.15-.14,0-.29,0-.48.02-.18.01-.36.02-.54.04-.18.02-.34.03-.48.05l-.03-.53c.13-.03.28-.06.46-.09.18-.03.37-.05.57-.07.2-.02.38-.03.55-.03.31,0,.56.04.76.13.2.09.34.23.44.41s.14.43.14.72v1.92c.01.1.05.18.13.23.08.05.17.08.28.1l-.02.54c-.11,0-.22,0-.32-.01-.1,0-.19-.02-.28-.05-.08-.02-.16-.05-.22-.09-.07-.04-.13-.08-.18-.14-.09.04-.22.09-.37.13-.15.05-.31.09-.48.12-.17.03-.34.05-.51.05ZM134.26,9.6c.13,0,.26-.01.4-.04.14-.03.27-.06.39-.09.12-.03.23-.06.3-.09v-1.17l-1.04.1c-.22.02-.37.08-.47.18-.09.11-.14.26-.14.46s.05.36.14.48.23.17.41.17Z"/><path class="cls-1" d="M78.27,12.09h-4.89c-1.51,0-2.74-1.23-2.74-2.74v-4.89c0-1.51,1.23-2.74,2.74-2.74h4.89c1.51,0,2.74,1.23,2.74,2.74v4.89c0,1.51-1.23,2.74-2.74,2.74ZM73.38,2.59c-1.03,0-1.87.84-1.87,1.87v4.89c0,1.03.84,1.87,1.87,1.87h4.89c1.03,0,1.87-.84,1.87-1.87v-4.89c0-1.03-.84-1.87-1.87-1.87h-4.89Z"/><g id="Linkedin_2"><path class="cls-1" d="M87.38,6.16c.08-.09.15-.19.24-.27.27-.25.58-.38.95-.37.2,0,.4.02.6.07.45.13.7.44.83.87.09.33.11.66.11,1,0,.71,0,1.42,0,2.13,0,.07-.02.08-.08.08-.37,0-.73,0-1.1,0-.06,0-.08-.02-.08-.08,0-.67,0-1.35,0-2.02,0-.17-.01-.34-.06-.5-.09-.3-.3-.46-.62-.44-.43.02-.66.24-.71.68-.01.11-.02.21-.02.32,0,.66,0,1.31,0,1.97,0,.07-.02.08-.08.08-.37,0-.74,0-1.1,0-.06,0-.08-.02-.08-.08,0-1.3,0-2.6,0-3.9,0-.06.02-.08.08-.08.35,0,.7,0,1.05,0,.06,0,.08.02.08.08,0,.16,0,.31,0,.47Z"/><path class="cls-1" d="M85.38,7.64c0,.64,0,1.29,0,1.93,0,.07-.02.09-.09.09-.37,0-.73,0-1.1,0-.06,0-.08-.01-.08-.07,0-1.3,0-2.6,0-3.9,0-.05.01-.07.07-.07.37,0,.74,0,1.11,0,.07,0,.08.03.08.09,0,.65,0,1.3,0,1.94Z"/><path class="cls-1" d="M85.48,4.32c0,.4-.33.73-.73.73-.4,0-.73-.33-.73-.73,0-.4.33-.73.73-.73.4,0,.73.33.73.73Z"/></g><path class="cls-1" d="M76.4,6.44l2.25-2.43h-.54l-1.95,2.1-1.57-2.1h-1.85l2.4,3.21-2.41,2.61h.54l2.11-2.28,1.71,2.28h1.85l-2.53-3.39ZM73.54,4.41h.85l3.75,5.01h-.85l-3.75-5.01Z"/><path class="cls-1" d="M438.52,9.4c-.41,0-.78-.07-1.11-.22-.33-.15-.59-.36-.78-.63-.19-.27-.29-.58-.29-.92,0-.11,0-.25.03-.43s.04-.38.07-.6c.03-.22.06-.44.1-.67.04-.23.07-.44.1-.64l.6.09c-.06.36-.11.69-.15.99-.04.3-.08.56-.1.78-.02.21-.03.37-.03.48,0,.24.07.45.2.63s.32.33.56.44c.24.11.51.16.82.16s.58-.05.8-.15c.22-.1.39-.24.51-.41.12-.18.18-.38.18-.62V3.6h.61v4.08c0,.36-.09.67-.28.93-.19.26-.44.46-.76.59-.32.14-.67.21-1.06.21ZM438.19,3.6v-.7h.61v.7h-.61ZM440.62,4.92v-.56h1.68v.56h-1.68ZM441.77,8.88v-.7h.61v.7h-.61ZM442.3,7.48v-3.88h.61v3.56l-.28-.23h1.12v.55h-1.44ZM442.83,8.88v-.7h.61v.7h-.61ZM443.74,7.48v-.55c.07,0,.11.02.13.07.02.05.03.12.03.2s0,.15-.03.2-.06.08-.13.08Z"/><path class="cls-1" d="M443.74,7.48c-.07,0-.11-.03-.13-.08s-.03-.12-.03-.2,0-.15.03-.2c.02-.05.06-.07.13-.07v.55ZM443.74,7.48v-.55h4.25l-.45.32v-1.67c0-.36-.04-.65-.12-.85-.08-.21-.22-.35-.42-.44s-.47-.13-.81-.13c-.22,0-.43.02-.65.05-.21.03-.38.07-.5.12l.36-.37c-.03.12-.06.28-.09.47-.03.19-.06.39-.08.61-.02.22-.03.44-.03.65s.01.44.03.65c.02.21.04.4.07.55.03.16.05.26.06.33l-.57.16c-.02-.07-.05-.18-.07-.35-.03-.17-.05-.37-.08-.6-.02-.23-.03-.48-.03-.75s.01-.5.03-.74c.02-.24.05-.46.09-.66s.07-.35.1-.47c.11-.05.29-.09.54-.14.25-.05.52-.07.82-.07.43,0,.8.06,1.09.19s.51.34.66.63.22.67.22,1.16v1.9h-4.4Z"/><path class="cls-1" d="M449,1.4v-.41h1.53v.41h-1.53ZM449.41,1.4c-.08-.1-.15-.2-.19-.3-.04-.1-.07-.2-.07-.31,0-.15.04-.28.11-.4.07-.12.17-.21.3-.28.12-.07.26-.1.4-.1.08,0,.17.01.25.03.08.02.16.06.22.1l-.2.35s-.08-.04-.12-.05-.08-.01-.12-.01c-.12,0-.21.03-.28.1s-.1.16-.1.26c0,.07.01.13.04.19.03.06.07.13.13.2l-.36.22ZM449.47,7.48V1.91h.6v5.57h-.6ZM450.07,7.48v-.55h.95v.55h-.95ZM451.01,7.48v-.55c.07,0,.11.02.13.07.02.05.03.12.03.2s0,.15-.03.2c-.02.05-.06.08-.13.08Z"/><path class="cls-1" d="M451.01,7.48c-.07,0-.11-.03-.13-.08s-.03-.12-.03-.2,0-.15.03-.2c.02-.05.06-.07.13-.07v.55ZM451.01,7.48v-.55h1.12l-.28.23v-3.56h.61v3.88h-1.44ZM451.33,2.9v-.7h.61v.7h-.61ZM452.39,2.9v-.7h.61v.7h-.61ZM452.46,7.48v-.55h.84v.55h-.84ZM453.3,7.48v-.55c.07,0,.11.02.13.07.02.05.03.12.03.2s0,.15-.03.2-.06.08-.13.08Z"/><path class="cls-1" d="M453.3,7.48c-.07,0-.11-.03-.13-.08s-.03-.12-.03-.2,0-.15.03-.2c.02-.05.06-.07.13-.07v.55ZM453.3,7.48v-.55h.94v.55h-.94ZM454.24,7.48V1.91h.61v5.57h-.61Z"/><path class="cls-1" d="M456.18,7.48V1.91h.6v5.57h-.6Z"/><path class="cls-1" d="M461.27,7.48c-.45,0-.8-.07-1.05-.21-.25-.14-.43-.35-.53-.64-.1-.29-.15-.65-.15-1.1s.05-.81.15-1.1c.1-.29.28-.5.53-.64.25-.14.6-.21,1.05-.21h1.61v3.57h-.61v-3.28l.31.26h-1.31c-.3,0-.53.04-.7.11s-.28.21-.34.41c-.06.2-.09.49-.09.87s.03.67.09.87c.06.2.17.33.34.41.16.07.39.11.7.11h2.45v.55h-2.45ZM460.52,2.9v-.7h.61v.7h-.61ZM461.58,2.9v-.7h.61v.7h-.61ZM463.72,7.48v-.55c.07,0,.11.02.13.07.02.05.03.12.03.2s0,.15-.03.2-.06.08-.13.08Z"/><path class="cls-1" d="M463.72,7.48c-.07,0-.11-.03-.13-.08s-.03-.12-.03-.2,0-.15.03-.2c.02-.05.06-.07.13-.07v.55ZM463.72,7.48v-.55h1.12l-.28.23v-3.56h.61v3.88h-1.44ZM464.09,2.9v-.41h1.53v.41h-1.53ZM464.49,2.9c-.08-.1-.15-.2-.19-.3-.04-.1-.07-.2-.07-.31,0-.15.04-.28.11-.4.07-.12.17-.21.3-.28s.26-.1.4-.1c.08,0,.17.01.25.03.08.02.16.06.22.1l-.2.35s-.08-.04-.12-.05c-.04,0-.08-.01-.12-.01-.12,0-.21.03-.28.1-.07.07-.1.16-.1.26,0,.07.01.13.04.19.03.06.07.13.13.2l-.37.22ZM465.16,7.48v-.55h.84v.55h-.84ZM466,7.48v-.55c.07,0,.11.02.13.07.02.05.03.12.03.2s0,.15-.03.2-.06.08-.13.08Z"/><path class="cls-1" d="M466,7.48c-.07,0-.11-.03-.13-.08s-.03-.12-.03-.2,0-.15.03-.2c.02-.05.06-.07.13-.07v.55ZM466,7.48v-.55h1.12l-.28.23v-3.56h.61v3.88h-1.44ZM466.31,8.88v-.7h.61v.7h-.61ZM467.38,8.88v-.7h.61v.7h-.61ZM467.45,7.48v-.55h.84v.55h-.84ZM468.28,7.48v-.55c.07,0,.11.02.13.07.02.05.03.12.03.2s0,.15-.03.2-.06.08-.13.08Z"/><path class="cls-1" d="M468.28,7.48c-.07,0-.11-.03-.13-.08s-.03-.12-.03-.2,0-.15.03-.2c.02-.05.06-.07.13-.07v.55ZM468.28,7.48v-.55h5.37l-.38.33v-1.32c0-.49-.07-.89-.23-1.2-.15-.31-.38-.54-.68-.69-.3-.15-.68-.22-1.14-.22-.19,0-.39.01-.61.03-.21.02-.42.05-.63.08-.21.03-.4.06-.57.09l-.09-.46c.12-.03.28-.07.49-.12.21-.05.44-.09.7-.13.25-.04.5-.05.75-.05.33,0,.64.04.96.13s.59.23.83.43c.25.2.44.47.59.82.14.34.22.77.22,1.28v1.55h-5.59ZM469.21,6.93v-.62c0-.25.06-.48.19-.69.12-.21.29-.38.51-.51s.46-.19.73-.19.52.06.73.19c.21.13.38.3.5.51.12.21.18.44.18.69v.62h-.61v-.62c0-.16-.04-.3-.11-.43s-.17-.23-.29-.3-.26-.11-.42-.11-.29.04-.41.11-.22.18-.3.3-.11.27-.11.43v.62h-.61Z"/><path class="cls-1" d="M479.92,7.48c-.45,0-.8-.07-1.05-.21-.25-.14-.43-.35-.53-.64-.1-.29-.15-.65-.15-1.1s.05-.81.15-1.1c.1-.29.28-.5.53-.64.25-.14.6-.21,1.05-.21h1.61v3.57h-.61v-3.28l.31.26h-1.31c-.3,0-.53.04-.7.11s-.28.21-.34.41c-.06.2-.09.49-.09.87s.03.67.09.87c.06.2.17.33.34.41.16.07.39.11.7.11h2.45v.55h-2.45ZM479.17,2.9v-.7h.61v.7h-.61ZM480.23,2.9v-.7h.61v.7h-.61ZM482.37,7.48v-.55c.07,0,.11.02.13.07.02.05.03.12.03.2s0,.15-.03.2-.06.08-.13.08Z"/><path class="cls-1" d="M482.37,7.48c-.07,0-.11-.03-.13-.08s-.03-.12-.03-.2,0-.15.03-.2c.02-.05.06-.07.13-.07v.55ZM482.37,7.48v-.55h1.12l-.28.23v-3.56h.61v3.88h-1.44ZM483.21,8.88v-.7h.61v.7h-.61Z"/><path class="cls-1" d="M485.19,7.48V1.91h.6v5.57h-.6ZM485.79,7.48v-.55h.95v.55h-.95ZM486.73,7.48v-.55c.07,0,.11.02.13.07.02.05.03.12.03.2s0,.15-.03.2c-.02.05-.06.08-.13.08Z"/><path class="cls-1" d="M486.73,7.48c-.07,0-.11-.03-.13-.08s-.03-.12-.03-.2,0-.15.03-.2c.02-.05.06-.07.13-.07v.55ZM486.73,7.48v-.55h3.92l-.4.35v-3.39l.32.26h-1.32c-.3,0-.53.04-.7.11s-.28.21-.34.41c-.06.2-.09.49-.09.87s.03.67.09.87c.06.2.17.33.34.41.16.07.39.11.7.11v.4c-.45,0-.8-.06-1.05-.17s-.43-.3-.53-.56c-.1-.26-.15-.61-.15-1.06s.05-.81.15-1.1.28-.5.53-.64c.25-.14.6-.21,1.05-.21h1.61v3.88h-4.12ZM488.53,2.9v-.7h.61v.7h-.61ZM489.6,2.9v-.7h.61v.7h-.61Z"/><path class="cls-1" d="M491.52,9.19c-.07,0-.14,0-.21-.01-.07,0-.15-.01-.22-.02l.07-.55c.07,0,.14.01.2.02.06,0,.12.01.16.01.24,0,.44-.09.59-.28.15-.18.22-.44.22-.76V3.6h.61v4.01c0,.32-.06.59-.18.83-.12.24-.29.43-.5.56-.21.13-.46.2-.74.2Z"/><path class="cls-1" d="M495.3,9.19c-.18,0-.37-.01-.58-.04-.2-.03-.43-.07-.67-.12l.09-.49c.27.04.5.06.69.08.18.02.34.02.47.02.43,0,.74-.08.94-.24s.29-.4.29-.71v-3.74l.31.2h-1.31c-.3,0-.53.04-.7.11s-.28.21-.34.41c-.06.2-.09.49-.09.87s.03.67.09.87c.06.2.17.33.34.41.16.07.39.11.7.11h1v.55h-1c-.45,0-.8-.07-1.05-.21-.25-.14-.43-.35-.53-.64-.1-.29-.15-.65-.15-1.1s.05-.81.15-1.1c.1-.29.28-.5.53-.64.25-.14.6-.21,1.05-.21h1.61v4.08c0,.32-.07.6-.22.82s-.36.4-.63.52c-.27.12-.6.17-.99.17Z"/><path class="cls-1" d="M502.15,7.48c-.77,0-1.35-.13-1.73-.4-.38-.27-.57-.69-.57-1.25,0-.12,0-.26.03-.4s.04-.29.07-.42c.03-.14.05-.26.07-.36s.03-.17.04-.21l.59.11c-.02.08-.04.2-.07.34-.03.14-.06.3-.08.47-.03.17-.04.32-.04.47,0,.26.05.47.16.63s.29.28.54.36.58.11,1,.11h4.43l-.4.35v-3.39l.32.26h-1.32c-.3,0-.53.04-.7.11s-.28.21-.34.41c-.06.2-.09.49-.09.87s.03.67.09.87c.06.2.17.33.34.41.16.07.39.11.7.11v.4c-.45,0-.8-.06-1.05-.17s-.43-.3-.53-.56c-.1-.26-.15-.61-.15-1.06s.05-.81.15-1.1c.1-.29.28-.5.53-.64.25-.14.6-.21,1.05-.21h1.61v3.88h-4.63ZM504.99,2.9v-.7h.61v.7h-.61Z"/><path class="cls-1" d="M508.2,7.48V1.91h.6v5.57h-.6Z"/><path class="cls-1" d="M509.61,9.19c-.07,0-.14,0-.21-.01-.07,0-.15-.01-.22-.02l.07-.55c.07,0,.14.01.2.02.06,0,.12.01.16.01.24,0,.44-.09.59-.28.15-.18.22-.44.22-.76V3.6h.61v4.01c0,.32-.06.59-.18.83-.12.24-.29.43-.5.56-.21.13-.46.2-.74.2ZM511.03,4.92v-.56h1.68v.56h-1.68ZM512.71,7.48v-3.88h.61v3.88h-.61ZM513.31,7.48v-.55h.87c.18,0,.31-.03.4-.08s.16-.16.19-.31c.04-.16.05-.38.05-.68v-1.87h.61v1.87c0,.4-.04.72-.13.96-.09.24-.22.41-.4.51-.18.1-.43.15-.73.15h-.87ZM514.3,2.9v-.7h.61v.7h-.61ZM515.82,7.48c-.18,0-.35-.03-.52-.1-.17-.07-.33-.17-.49-.32l.4-.41c.11.1.22.17.31.21.1.04.19.07.29.07h1.38l-.23.25v-1.86c0-.09,0-.23-.03-.4-.02-.17-.04-.36-.08-.58-.03-.21-.07-.43-.12-.65l.59-.1c.04.18.07.38.11.61s.07.43.09.63c.02.2.03.36.03.49v2.16h-1.75ZM514.86,1.87v-.66h.56v.66h-.56ZM515.36,2.9v-.7h.61v.7h-.61Z"/><path class="cls-1" d="M518.47,7.48v-.55h3.8l-.34.35V1.91h.61v5.57h-4.06ZM519.24,9.57v-.41h1.53v.41h-1.53ZM519.65,9.57c-.08-.1-.15-.2-.19-.3-.04-.1-.07-.2-.07-.31,0-.15.04-.28.11-.4.07-.12.17-.21.3-.28.12-.07.26-.1.4-.1.08,0,.17.01.25.03.08.02.16.06.22.1l-.2.35s-.08-.04-.12-.05c-.04,0-.08-.01-.12-.01-.12,0-.21.03-.28.1-.07.07-.1.16-.1.26,0,.07.01.13.04.19.03.06.07.13.13.2l-.36.22ZM519.71,6.93v-3.91h.6v3.91h-.6Z"/><path class="cls-1" d="M526.91,7.48c-.45,0-.8-.07-1.05-.21-.25-.14-.43-.35-.53-.64-.1-.29-.15-.65-.15-1.1s.05-.81.15-1.1c.1-.29.28-.5.53-.64.25-.14.6-.21,1.05-.21h1.61v3.57h-.61v-3.28l.31.26h-1.31c-.3,0-.53.04-.7.11s-.28.21-.34.41c-.06.2-.09.49-.09.87s.03.67.09.87c.06.2.17.33.34.41.16.07.39.11.7.11h2.45v.55h-2.45ZM526.16,2.9v-.7h.61v.7h-.61ZM527.22,2.9v-.7h.61v.7h-.61ZM529.35,7.48v-.55c.07,0,.11.02.13.07.02.05.03.12.03.2s0,.15-.03.2-.06.08-.13.08Z"/><path class="cls-1" d="M529.35,7.48c-.07,0-.11-.03-.13-.08s-.03-.12-.03-.2,0-.15.03-.2c.02-.05.06-.07.13-.07v.55ZM529.35,7.48v-.55h1.04c.31,0,.61-.05.89-.15.28-.1.55-.24.78-.4.24-.17.45-.35.62-.56.18-.2.31-.41.41-.62.1-.21.15-.41.15-.6v-.47l.33.49c-.3-.16-.6-.27-.89-.35-.29-.08-.57-.12-.85-.12s-.56.04-.85.12c-.29.08-.58.19-.88.35l.33-.49v.47c0,.19.05.39.15.6s.23.42.41.62c.17.2.38.39.62.56.24.17.5.3.78.4.28.1.58.15.89.15h.99v.55h-.99c-.4,0-.78-.06-1.13-.19-.35-.13-.67-.3-.96-.52-.28-.21-.53-.45-.73-.71-.2-.26-.36-.51-.47-.77-.11-.26-.16-.49-.16-.7v-.47c.22-.12.45-.22.68-.29.23-.08.45-.14.68-.17.22-.04.44-.06.65-.06s.43.02.65.06c.22.04.45.1.68.17.23.08.45.18.68.29v.47c0,.21-.05.45-.16.7-.11.26-.27.51-.47.77-.2.26-.45.49-.73.71-.28.22-.6.39-.96.52-.35.13-.73.19-1.13.19h-1.04ZM534.29,7.48v-.55c.07,0,.11.02.13.07.02.05.03.12.03.2s0,.15-.03.2-.06.08-.13.08Z"/><path class="cls-1" d="M534.29,7.48c-.07,0-.11-.03-.13-.08s-.03-.12-.03-.2,0-.15.03-.2c.02-.05.06-.07.13-.07v.55ZM534.29,7.48v-.55h5.74l-.56.5v-1.82c0-.33-.05-.6-.14-.81-.09-.21-.23-.38-.4-.49s-.4-.16-.67-.16c-.23,0-.44.04-.63.11-.19.07-.37.17-.54.29-.17.12-.32.26-.46.4s-.27.3-.39.45c-.12.15-.23.29-.33.41l-.19-.55c.13-.16.26-.32.39-.48s.27-.31.42-.45.3-.27.48-.38c.17-.11.36-.2.57-.26.21-.06.44-.1.7-.1.37,0,.67.06.9.19.24.12.42.29.55.49.13.2.22.42.28.66.05.23.08.46.08.68v1.87h-5.78ZM535.4,6.93v-3.33h.61v3.33h-.61ZM537.52,2.9v-.7h.61v.7h-.61Z"/><path class="cls-1" d="M541.41,7.48V1.91h.6v5.57h-.6ZM542,7.48v-.55h.95v.55h-.95ZM542.95,7.48v-.55c.07,0,.11.02.13.07.02.05.03.12.03.2s0,.15-.03.2c-.02.05-.06.08-.13.08Z"/><path class="cls-1" d="M542.95,7.48c-.07,0-.11-.03-.13-.08s-.03-.12-.03-.2,0-.15.03-.2c.02-.05.06-.07.13-.07v.55ZM542.95,7.48v-.55h3.42l-.19.16v-1.93c0-.34-.1-.59-.31-.76-.21-.17-.53-.25-.96-.25-.13,0-.33.01-.58.03s-.52.06-.8.1l-.07-.5c.21-.05.44-.1.7-.14s.5-.06.74-.06c.39,0,.73.06,1.01.18.28.12.5.3.65.53.15.23.23.52.23.85v2.31h-3.84ZM544.6,3.06v-.7h.61v.7h-.61Z"/><path class="cls-1" d="M549.07,4.6l-.32-.98-.83.61-.24-.32.83-.61-.82-.6.24-.33.82.61.32-.98.39.13-.31.98h1.01v.4h-1.02l.31.97-.39.12Z"/></svg>